%TF.GenerationSoftware,KiCad,Pcbnew,10.0.1*%
%TF.CreationDate,2026-05-03T11:39:12-04:00*%
%TF.ProjectId,bionic_butterfly,62696f6e-6963-45f6-9275-74746572666c,rev?*%
%TF.SameCoordinates,Original*%
%TF.FileFunction,Legend,Top*%
%TF.FilePolarity,Positive*%
%FSLAX46Y46*%
G04 Gerber Fmt 4.6, Leading zero omitted, Abs format (unit mm)*
G04 Created by KiCad (PCBNEW 10.0.1) date 2026-05-03 11:39:12*
%MOMM*%
%LPD*%
G01*
G04 APERTURE LIST*
%ADD10C,0.120000*%
G04 APERTURE END LIST*
%TO.C,SW1*%
D10*
X156540000Y-115600000D02*
X156540000Y-116600000D01*
X156540000Y-116600000D02*
X157040000Y-116100000D01*
X157040000Y-116100000D02*
X156540000Y-115600000D01*
X157240000Y-109690000D02*
X157550000Y-109690000D01*
X157240000Y-118510000D02*
X157240000Y-109690000D01*
X157550000Y-118510000D02*
X157240000Y-118510000D01*
X161760000Y-109690000D02*
X161450000Y-109690000D01*
X161760000Y-109690000D02*
X161760000Y-118510000D01*
X161760000Y-118510000D02*
X161450000Y-118510000D01*
%TO.C,J_BAT1*%
X153090000Y-120440000D02*
X153090000Y-121360000D01*
X153090000Y-121360000D02*
X154690000Y-121360000D01*
X153090000Y-125640000D02*
X153090000Y-126560000D01*
X153090000Y-126560000D02*
X160910000Y-126560000D01*
X154690000Y-120440000D02*
X154690000Y-121360000D01*
X154690000Y-121360000D02*
X154690000Y-121640000D01*
X154690000Y-125360000D02*
X153475000Y-125360000D01*
X154690000Y-125360000D02*
X154690000Y-125640000D01*
X154690000Y-125640000D02*
X153090000Y-125640000D01*
X154690000Y-126560000D02*
X154690000Y-125640000D01*
X156550000Y-123000000D02*
X160910000Y-123000000D01*
X156550000Y-124000000D02*
X156550000Y-123000000D01*
X158650000Y-124800000D02*
X160910000Y-124800000D01*
X158650000Y-125300000D02*
X160910000Y-125300000D01*
X160910000Y-120440000D02*
X153090000Y-120440000D01*
X160910000Y-124000000D02*
X156550000Y-124000000D01*
X160910000Y-126560000D02*
X160910000Y-120440000D01*
X157050000Y-121200000D02*
X158650000Y-121200000D01*
X158650000Y-122200000D01*
X157050000Y-122200000D01*
X157050000Y-121200000D01*
X157050000Y-124800000D02*
X158650000Y-124800000D01*
X158650000Y-125800000D01*
X157050000Y-125800000D01*
X157050000Y-124800000D01*
%TO.C,J_SRV2*%
X126120000Y-119060000D02*
X127500000Y-119060000D01*
X126120000Y-120440000D02*
X126120000Y-119060000D01*
X126120000Y-121710000D02*
X126120000Y-126900000D01*
X126120000Y-121710000D02*
X128880000Y-121710000D01*
X126120000Y-126900000D02*
X128880000Y-126900000D01*
X128880000Y-121710000D02*
X128880000Y-126900000D01*
%TO.C,J_SRV1*%
X126120000Y-110140000D02*
X127500000Y-110140000D01*
X126120000Y-111520000D02*
X126120000Y-110140000D01*
X126120000Y-112790000D02*
X126120000Y-117980000D01*
X126120000Y-112790000D02*
X128880000Y-112790000D01*
X126120000Y-117980000D02*
X128880000Y-117980000D01*
X128880000Y-112790000D02*
X128880000Y-117980000D01*
%TO.C,L1*%
X153900000Y-86100000D02*
X153900000Y-89100000D01*
X157100000Y-86100000D02*
X157100000Y-89100000D01*
%TO.C,R_PROG1*%
X159120000Y-83163641D02*
X159120000Y-82856359D01*
X159880000Y-83163641D02*
X159880000Y-82856359D01*
%TO.C,A1*%
X130280000Y-81140000D02*
X129800000Y-81140000D01*
X130280000Y-81140000D02*
X130280000Y-81560000D01*
X130280000Y-83680000D02*
X130280000Y-84100000D01*
X130280000Y-86220000D02*
X130280000Y-86640000D01*
X130280000Y-88760000D02*
X130280000Y-89180000D01*
X130280000Y-91300000D02*
X130280000Y-91720000D01*
X130280000Y-93840000D02*
X130280000Y-94260000D01*
X130280000Y-96380000D02*
X130280000Y-96800000D01*
X130280000Y-98920000D02*
X130280000Y-99340000D01*
X130280000Y-101460000D02*
X130280000Y-101880000D01*
X130280000Y-104000000D02*
X130280000Y-104420000D01*
X130280000Y-106540000D02*
X130280000Y-106960000D01*
X130280000Y-109080000D02*
X130280000Y-109500000D01*
X130280000Y-111620000D02*
X130280000Y-112040000D01*
X130280000Y-114160000D02*
X130280000Y-114580000D01*
X130280000Y-116700000D02*
X130280000Y-117120000D01*
X130280000Y-119240000D02*
X130280000Y-119660000D01*
X130280000Y-121780000D02*
X130280000Y-122200000D01*
X130280000Y-124320000D02*
X130280000Y-124740000D01*
X130280000Y-126860000D02*
X130280000Y-127280000D01*
X130310324Y-79020000D02*
X129800000Y-79020000D01*
X130890000Y-78600000D02*
X133380000Y-78600000D01*
X133380000Y-78600000D02*
X134727940Y-78600000D01*
X135652061Y-78600000D02*
X136655000Y-78600000D01*
X136655000Y-78600000D02*
X145125000Y-78600000D01*
X136990000Y-78600000D02*
X136990000Y-79516000D01*
X136990000Y-81904000D02*
X136990000Y-83120000D01*
X136990000Y-83120000D02*
X137286090Y-83120000D01*
X139643910Y-83120000D02*
X142136090Y-83120000D01*
X144493910Y-83120000D02*
X144790000Y-83120000D01*
X144790000Y-78600000D02*
X144790000Y-79516000D01*
X144790000Y-81904000D02*
X144790000Y-83120000D01*
X145125000Y-78600000D02*
X146127939Y-78600000D01*
X147052061Y-78600000D02*
X148400000Y-78600000D01*
X150890000Y-78600000D02*
X148400000Y-78600000D01*
X151500000Y-81140000D02*
X151500000Y-81560000D01*
X151500000Y-83680000D02*
X151500000Y-84100000D01*
X151500000Y-86220000D02*
X151500000Y-86640000D01*
X151500000Y-88760000D02*
X151500000Y-89180000D01*
X151500000Y-91300000D02*
X151500000Y-91720000D01*
X151500000Y-93840000D02*
X151500000Y-94260000D01*
X151500000Y-96380000D02*
X151500000Y-96800000D01*
X151500000Y-98920000D02*
X151500000Y-99340000D01*
X151500000Y-101460000D02*
X151500000Y-101880000D01*
X151500000Y-104000000D02*
X151500000Y-104420000D01*
X151500000Y-106540000D02*
X151500000Y-106960000D01*
X151500000Y-109080000D02*
X151500000Y-109500000D01*
X151500000Y-111620000D02*
X151500000Y-112040000D01*
X151500000Y-114160000D02*
X151500000Y-114580000D01*
X151500000Y-116700000D02*
X151500000Y-117120000D01*
X151500000Y-119240000D02*
X151500000Y-119660000D01*
X151500000Y-121780000D02*
X151500000Y-122200000D01*
X151500000Y-124320000D02*
X151500000Y-124740000D01*
X151500000Y-126860000D02*
X151500000Y-127280000D01*
X130310324Y-79020000D02*
G75*
G02*
X130890000Y-78600000I579692J-190051D01*
G01*
X130526682Y-129700000D02*
G75*
G02*
X130310324Y-129399937I363328J490008D01*
G01*
X150890000Y-78600000D02*
G75*
G02*
X151469676Y-79020063I0J-610000D01*
G01*
X151469676Y-129399937D02*
G75*
G02*
X151253335Y-129700022I-579476J189737D01*
G01*
%TO.C,C_3V3*%
X153420000Y-104710000D02*
X158580000Y-104710000D01*
X153420000Y-104750000D02*
X158580000Y-104750000D01*
X153421000Y-104670000D02*
X158579000Y-104670000D01*
X153423000Y-104630000D02*
X158577000Y-104630000D01*
X153425000Y-104590000D02*
X158575000Y-104590000D01*
X153428000Y-104550000D02*
X158572000Y-104550000D01*
X153431000Y-104510000D02*
X154960000Y-104510000D01*
X153435000Y-104470000D02*
X154960000Y-104470000D01*
X153440000Y-104430000D02*
X154960000Y-104430000D01*
X153445000Y-104390000D02*
X154960000Y-104390000D01*
X153451000Y-104350000D02*
X154960000Y-104350000D01*
X153457000Y-104310000D02*
X154960000Y-104310000D01*
X153464000Y-104270000D02*
X154960000Y-104270000D01*
X153472000Y-104230000D02*
X154960000Y-104230000D01*
X153481000Y-104190000D02*
X154960000Y-104190000D01*
X153490000Y-104150000D02*
X154960000Y-104150000D01*
X153499000Y-104110000D02*
X154960000Y-104110000D01*
X153510000Y-104070000D02*
X154960000Y-104070000D01*
X153521000Y-104030000D02*
X154960000Y-104030000D01*
X153533000Y-103990000D02*
X154960000Y-103990000D01*
X153545000Y-103950000D02*
X154960000Y-103950000D01*
X153558000Y-103910000D02*
X154960000Y-103910000D01*
X153572000Y-103870000D02*
X154960000Y-103870000D01*
X153587000Y-103830000D02*
X154960000Y-103830000D01*
X153602000Y-103790000D02*
X154960000Y-103790000D01*
X153618000Y-103750000D02*
X154960000Y-103750000D01*
X153635000Y-103710000D02*
X154960000Y-103710000D01*
X153653000Y-103670000D02*
X154960000Y-103670000D01*
X153671000Y-103630000D02*
X154960000Y-103630000D01*
X153691000Y-103590000D02*
X154960000Y-103590000D01*
X153711000Y-103550000D02*
X154960000Y-103550000D01*
X153732000Y-103510000D02*
X154960000Y-103510000D01*
X153754000Y-103470000D02*
X154960000Y-103470000D01*
X153777000Y-103430000D02*
X154960000Y-103430000D01*
X153801000Y-103390000D02*
X154960000Y-103390000D01*
X153825000Y-103350000D02*
X154960000Y-103350000D01*
X153851000Y-103310000D02*
X154960000Y-103310000D01*
X153878000Y-103270000D02*
X154960000Y-103270000D01*
X153906000Y-103230000D02*
X154960000Y-103230000D01*
X153935000Y-103190000D02*
X154960000Y-103190000D01*
X153965000Y-103150000D02*
X154960000Y-103150000D01*
X153997000Y-103110000D02*
X154960000Y-103110000D01*
X154030000Y-103070000D02*
X154960000Y-103070000D01*
X154064000Y-103030000D02*
X154960000Y-103030000D01*
X154099000Y-102990000D02*
X154960000Y-102990000D01*
X154136000Y-102950000D02*
X154960000Y-102950000D01*
X154175000Y-102910000D02*
X154960000Y-102910000D01*
X154215000Y-102870000D02*
X154960000Y-102870000D01*
X154257000Y-102830000D02*
X154960000Y-102830000D01*
X154275000Y-107304775D02*
X154775000Y-107304775D01*
X154301000Y-102790000D02*
X154960000Y-102790000D01*
X154348000Y-102750000D02*
X154960000Y-102750000D01*
X154396000Y-102710000D02*
X154960000Y-102710000D01*
X154447000Y-102670000D02*
X154960000Y-102670000D01*
X154501000Y-102630000D02*
X154960000Y-102630000D01*
X154525000Y-107554775D02*
X154525000Y-107054775D01*
X154557000Y-102590000D02*
X154960000Y-102590000D01*
X154617000Y-102550000D02*
X154960000Y-102550000D01*
X154681000Y-102510000D02*
X154960000Y-102510000D01*
X154749000Y-102470000D02*
X154960000Y-102470000D01*
X154823000Y-102430000D02*
X157177000Y-102430000D01*
X154902000Y-102390000D02*
X157098000Y-102390000D01*
X154989000Y-102350000D02*
X157011000Y-102350000D01*
X155086000Y-102310000D02*
X156914000Y-102310000D01*
X155195000Y-102270000D02*
X156805000Y-102270000D01*
X155323000Y-102230000D02*
X156677000Y-102230000D01*
X155483000Y-102190000D02*
X156517000Y-102190000D01*
X155717000Y-102150000D02*
X156283000Y-102150000D01*
X157040000Y-102470000D02*
X157251000Y-102470000D01*
X157040000Y-102510000D02*
X157319000Y-102510000D01*
X157040000Y-102550000D02*
X157383000Y-102550000D01*
X157040000Y-102590000D02*
X157443000Y-102590000D01*
X157040000Y-102630000D02*
X157499000Y-102630000D01*
X157040000Y-102670000D02*
X157553000Y-102670000D01*
X157040000Y-102710000D02*
X157604000Y-102710000D01*
X157040000Y-102750000D02*
X157652000Y-102750000D01*
X157040000Y-102790000D02*
X157699000Y-102790000D01*
X157040000Y-102830000D02*
X157743000Y-102830000D01*
X157040000Y-102870000D02*
X157785000Y-102870000D01*
X157040000Y-102910000D02*
X157825000Y-102910000D01*
X157040000Y-102950000D02*
X157864000Y-102950000D01*
X157040000Y-102990000D02*
X157901000Y-102990000D01*
X157040000Y-103030000D02*
X157936000Y-103030000D01*
X157040000Y-103070000D02*
X157970000Y-103070000D01*
X157040000Y-103110000D02*
X158003000Y-103110000D01*
X157040000Y-103150000D02*
X158035000Y-103150000D01*
X157040000Y-103190000D02*
X158065000Y-103190000D01*
X157040000Y-103230000D02*
X158094000Y-103230000D01*
X157040000Y-103270000D02*
X158122000Y-103270000D01*
X157040000Y-103310000D02*
X158149000Y-103310000D01*
X157040000Y-103350000D02*
X158175000Y-103350000D01*
X157040000Y-103390000D02*
X158199000Y-103390000D01*
X157040000Y-103430000D02*
X158223000Y-103430000D01*
X157040000Y-103470000D02*
X158246000Y-103470000D01*
X157040000Y-103510000D02*
X158268000Y-103510000D01*
X157040000Y-103550000D02*
X158289000Y-103550000D01*
X157040000Y-103590000D02*
X158309000Y-103590000D01*
X157040000Y-103630000D02*
X158329000Y-103630000D01*
X157040000Y-103670000D02*
X158347000Y-103670000D01*
X157040000Y-103710000D02*
X158365000Y-103710000D01*
X157040000Y-103750000D02*
X158382000Y-103750000D01*
X157040000Y-103790000D02*
X158398000Y-103790000D01*
X157040000Y-103830000D02*
X158413000Y-103830000D01*
X157040000Y-103870000D02*
X158428000Y-103870000D01*
X157040000Y-103910000D02*
X158442000Y-103910000D01*
X157040000Y-103950000D02*
X158455000Y-103950000D01*
X157040000Y-103990000D02*
X158467000Y-103990000D01*
X157040000Y-104030000D02*
X158479000Y-104030000D01*
X157040000Y-104070000D02*
X158490000Y-104070000D01*
X157040000Y-104110000D02*
X158501000Y-104110000D01*
X157040000Y-104150000D02*
X158510000Y-104150000D01*
X157040000Y-104190000D02*
X158519000Y-104190000D01*
X157040000Y-104230000D02*
X158528000Y-104230000D01*
X157040000Y-104270000D02*
X158536000Y-104270000D01*
X157040000Y-104310000D02*
X158543000Y-104310000D01*
X157040000Y-104350000D02*
X158549000Y-104350000D01*
X157040000Y-104390000D02*
X158555000Y-104390000D01*
X157040000Y-104430000D02*
X158560000Y-104430000D01*
X157040000Y-104470000D02*
X158565000Y-104470000D01*
X157040000Y-104510000D02*
X158569000Y-104510000D01*
X158620000Y-104750000D02*
G75*
G02*
X153380000Y-104750000I-2620000J0D01*
G01*
X153380000Y-104750000D02*
G75*
G02*
X158620000Y-104750000I2620000J0D01*
G01*
%TO.C,J_EXT1*%
X126120000Y-88020000D02*
X127500000Y-88020000D01*
X126120000Y-89400000D02*
X126120000Y-88020000D01*
X126120000Y-90670000D02*
X126120000Y-108560000D01*
X126120000Y-90670000D02*
X128880000Y-90670000D01*
X126120000Y-108560000D02*
X128880000Y-108560000D01*
X128880000Y-90670000D02*
X128880000Y-108560000D01*
%TO.C,R_SRV1*%
X124620000Y-114163641D02*
X124620000Y-113856359D01*
X125380000Y-114163641D02*
X125380000Y-113856359D01*
%TO.C,C_5V_bypass1*%
X159892164Y-99640000D02*
X160107836Y-99640000D01*
X159892164Y-100360000D02*
X160107836Y-100360000D01*
%TO.C,MCP73831*%
X153990000Y-81727500D02*
X154040000Y-81727500D01*
X153990000Y-83547500D02*
X153990000Y-81727500D01*
X154040000Y-83547500D02*
X153990000Y-83547500D01*
X155160000Y-81727500D02*
X155940000Y-81727500D01*
X157060000Y-81727500D02*
X157110000Y-81727500D01*
X157110000Y-81727500D02*
X157110000Y-83547500D01*
X157110000Y-83547500D02*
X157060000Y-83547500D01*
X154040000Y-84087500D02*
X153710000Y-84327500D01*
X153710000Y-83847500D01*
X154040000Y-84087500D01*
G36*
X154040000Y-84087500D02*
G01*
X153710000Y-84327500D01*
X153710000Y-83847500D01*
X154040000Y-84087500D01*
G37*
%TO.C,R_LED1*%
X157620000Y-81336359D02*
X157620000Y-81643641D01*
X158380000Y-81336359D02*
X158380000Y-81643641D01*
%TO.C,R_FB2*%
X160120000Y-102356359D02*
X160120000Y-102663641D01*
X160880000Y-102356359D02*
X160880000Y-102663641D01*
%TO.C,LED_CHG1*%
X159015000Y-80265000D02*
X159015000Y-81735000D01*
X159015000Y-81735000D02*
X161300000Y-81735000D01*
X161300000Y-80265000D02*
X159015000Y-80265000D01*
%TO.C,R_SRV2*%
X124120000Y-122876359D02*
X124120000Y-123183641D01*
X124880000Y-122876359D02*
X124880000Y-123183641D01*
%TO.C,MT3608*%
X158490000Y-86727500D02*
X158540000Y-86727500D01*
X158490000Y-88547500D02*
X158490000Y-86727500D01*
X158540000Y-88547500D02*
X158490000Y-88547500D01*
X161560000Y-86727500D02*
X161610000Y-86727500D01*
X161610000Y-86727500D02*
X161610000Y-88547500D01*
X161610000Y-88547500D02*
X161560000Y-88547500D01*
X161890000Y-86427500D02*
X161560000Y-86187500D01*
X161890000Y-85947500D01*
X161890000Y-86427500D01*
G36*
X161890000Y-86427500D02*
G01*
X161560000Y-86187500D01*
X161890000Y-85947500D01*
X161890000Y-86427500D01*
G37*
%TO.C,D1*%
X160510000Y-90850000D02*
X155000000Y-90850000D01*
X160510000Y-94150000D02*
X155000000Y-94150000D01*
X160510000Y-94150000D02*
X160510000Y-90850000D01*
%TO.C,C_BAT1*%
X123420000Y-81730000D02*
X128580000Y-81730000D01*
X123420000Y-81770000D02*
X128580000Y-81770000D01*
X123421000Y-81690000D02*
X128579000Y-81690000D01*
X123423000Y-81650000D02*
X128577000Y-81650000D01*
X123425000Y-81610000D02*
X128575000Y-81610000D01*
X123428000Y-81570000D02*
X128572000Y-81570000D01*
X123431000Y-81530000D02*
X124960000Y-81530000D01*
X123435000Y-81490000D02*
X124960000Y-81490000D01*
X123440000Y-81450000D02*
X124960000Y-81450000D01*
X123445000Y-81410000D02*
X124960000Y-81410000D01*
X123451000Y-81370000D02*
X124960000Y-81370000D01*
X123457000Y-81330000D02*
X124960000Y-81330000D01*
X123464000Y-81290000D02*
X124960000Y-81290000D01*
X123472000Y-81250000D02*
X124960000Y-81250000D01*
X123481000Y-81210000D02*
X124960000Y-81210000D01*
X123490000Y-81170000D02*
X124960000Y-81170000D01*
X123499000Y-81130000D02*
X124960000Y-81130000D01*
X123510000Y-81090000D02*
X124960000Y-81090000D01*
X123521000Y-81050000D02*
X124960000Y-81050000D01*
X123533000Y-81010000D02*
X124960000Y-81010000D01*
X123545000Y-80970000D02*
X124960000Y-80970000D01*
X123558000Y-80930000D02*
X124960000Y-80930000D01*
X123572000Y-80890000D02*
X124960000Y-80890000D01*
X123587000Y-80850000D02*
X124960000Y-80850000D01*
X123602000Y-80810000D02*
X124960000Y-80810000D01*
X123618000Y-80770000D02*
X124960000Y-80770000D01*
X123635000Y-80730000D02*
X124960000Y-80730000D01*
X123653000Y-80690000D02*
X124960000Y-80690000D01*
X123671000Y-80650000D02*
X124960000Y-80650000D01*
X123691000Y-80610000D02*
X124960000Y-80610000D01*
X123711000Y-80570000D02*
X124960000Y-80570000D01*
X123732000Y-80530000D02*
X124960000Y-80530000D01*
X123754000Y-80490000D02*
X124960000Y-80490000D01*
X123777000Y-80450000D02*
X124960000Y-80450000D01*
X123801000Y-80410000D02*
X124960000Y-80410000D01*
X123825000Y-80370000D02*
X124960000Y-80370000D01*
X123851000Y-80330000D02*
X124960000Y-80330000D01*
X123878000Y-80290000D02*
X124960000Y-80290000D01*
X123906000Y-80250000D02*
X124960000Y-80250000D01*
X123935000Y-80210000D02*
X124960000Y-80210000D01*
X123965000Y-80170000D02*
X124960000Y-80170000D01*
X123997000Y-80130000D02*
X124960000Y-80130000D01*
X124030000Y-80090000D02*
X124960000Y-80090000D01*
X124064000Y-80050000D02*
X124960000Y-80050000D01*
X124099000Y-80010000D02*
X124960000Y-80010000D01*
X124136000Y-79970000D02*
X124960000Y-79970000D01*
X124175000Y-79930000D02*
X124960000Y-79930000D01*
X124215000Y-79890000D02*
X124960000Y-79890000D01*
X124257000Y-79850000D02*
X124960000Y-79850000D01*
X124275000Y-84324775D02*
X124775000Y-84324775D01*
X124301000Y-79810000D02*
X124960000Y-79810000D01*
X124348000Y-79770000D02*
X124960000Y-79770000D01*
X124396000Y-79730000D02*
X124960000Y-79730000D01*
X124447000Y-79690000D02*
X124960000Y-79690000D01*
X124501000Y-79650000D02*
X124960000Y-79650000D01*
X124525000Y-84574775D02*
X124525000Y-84074775D01*
X124557000Y-79610000D02*
X124960000Y-79610000D01*
X124617000Y-79570000D02*
X124960000Y-79570000D01*
X124681000Y-79530000D02*
X124960000Y-79530000D01*
X124749000Y-79490000D02*
X124960000Y-79490000D01*
X124823000Y-79450000D02*
X127177000Y-79450000D01*
X124902000Y-79410000D02*
X127098000Y-79410000D01*
X124989000Y-79370000D02*
X127011000Y-79370000D01*
X125086000Y-79330000D02*
X126914000Y-79330000D01*
X125195000Y-79290000D02*
X126805000Y-79290000D01*
X125323000Y-79250000D02*
X126677000Y-79250000D01*
X125483000Y-79210000D02*
X126517000Y-79210000D01*
X125717000Y-79170000D02*
X126283000Y-79170000D01*
X127040000Y-79490000D02*
X127251000Y-79490000D01*
X127040000Y-79530000D02*
X127319000Y-79530000D01*
X127040000Y-79570000D02*
X127383000Y-79570000D01*
X127040000Y-79610000D02*
X127443000Y-79610000D01*
X127040000Y-79650000D02*
X127499000Y-79650000D01*
X127040000Y-79690000D02*
X127553000Y-79690000D01*
X127040000Y-79730000D02*
X127604000Y-79730000D01*
X127040000Y-79770000D02*
X127652000Y-79770000D01*
X127040000Y-79810000D02*
X127699000Y-79810000D01*
X127040000Y-79850000D02*
X127743000Y-79850000D01*
X127040000Y-79890000D02*
X127785000Y-79890000D01*
X127040000Y-79930000D02*
X127825000Y-79930000D01*
X127040000Y-79970000D02*
X127864000Y-79970000D01*
X127040000Y-80010000D02*
X127901000Y-80010000D01*
X127040000Y-80050000D02*
X127936000Y-80050000D01*
X127040000Y-80090000D02*
X127970000Y-80090000D01*
X127040000Y-80130000D02*
X128003000Y-80130000D01*
X127040000Y-80170000D02*
X128035000Y-80170000D01*
X127040000Y-80210000D02*
X128065000Y-80210000D01*
X127040000Y-80250000D02*
X128094000Y-80250000D01*
X127040000Y-80290000D02*
X128122000Y-80290000D01*
X127040000Y-80330000D02*
X128149000Y-80330000D01*
X127040000Y-80370000D02*
X128175000Y-80370000D01*
X127040000Y-80410000D02*
X128199000Y-80410000D01*
X127040000Y-80450000D02*
X128223000Y-80450000D01*
X127040000Y-80490000D02*
X128246000Y-80490000D01*
X127040000Y-80530000D02*
X128268000Y-80530000D01*
X127040000Y-80570000D02*
X128289000Y-80570000D01*
X127040000Y-80610000D02*
X128309000Y-80610000D01*
X127040000Y-80650000D02*
X128329000Y-80650000D01*
X127040000Y-80690000D02*
X128347000Y-80690000D01*
X127040000Y-80730000D02*
X128365000Y-80730000D01*
X127040000Y-80770000D02*
X128382000Y-80770000D01*
X127040000Y-80810000D02*
X128398000Y-80810000D01*
X127040000Y-80850000D02*
X128413000Y-80850000D01*
X127040000Y-80890000D02*
X128428000Y-80890000D01*
X127040000Y-80930000D02*
X128442000Y-80930000D01*
X127040000Y-80970000D02*
X128455000Y-80970000D01*
X127040000Y-81010000D02*
X128467000Y-81010000D01*
X127040000Y-81050000D02*
X128479000Y-81050000D01*
X127040000Y-81090000D02*
X128490000Y-81090000D01*
X127040000Y-81130000D02*
X128501000Y-81130000D01*
X127040000Y-81170000D02*
X128510000Y-81170000D01*
X127040000Y-81210000D02*
X128519000Y-81210000D01*
X127040000Y-81250000D02*
X128528000Y-81250000D01*
X127040000Y-81290000D02*
X128536000Y-81290000D01*
X127040000Y-81330000D02*
X128543000Y-81330000D01*
X127040000Y-81370000D02*
X128549000Y-81370000D01*
X127040000Y-81410000D02*
X128555000Y-81410000D01*
X127040000Y-81450000D02*
X128560000Y-81450000D01*
X127040000Y-81490000D02*
X128565000Y-81490000D01*
X127040000Y-81530000D02*
X128569000Y-81530000D01*
X128620000Y-81770000D02*
G75*
G02*
X123380000Y-81770000I-2620000J0D01*
G01*
X123380000Y-81770000D02*
G75*
G02*
X128620000Y-81770000I2620000J0D01*
G01*
%TO.C,C_5V1*%
X153420000Y-97960000D02*
X154960000Y-97960000D01*
X153420000Y-98000000D02*
X154960000Y-98000000D01*
X153421000Y-97920000D02*
X154960000Y-97920000D01*
X153423000Y-97880000D02*
X154960000Y-97880000D01*
X153425000Y-97840000D02*
X154960000Y-97840000D01*
X153428000Y-97800000D02*
X154960000Y-97800000D01*
X153431000Y-97760000D02*
X154960000Y-97760000D01*
X153435000Y-97720000D02*
X154960000Y-97720000D01*
X153440000Y-97680000D02*
X154960000Y-97680000D01*
X153445000Y-97640000D02*
X154960000Y-97640000D01*
X153451000Y-97600000D02*
X154960000Y-97600000D01*
X153457000Y-97560000D02*
X154960000Y-97560000D01*
X153464000Y-97520000D02*
X154960000Y-97520000D01*
X153472000Y-97480000D02*
X154960000Y-97480000D01*
X153481000Y-97440000D02*
X154960000Y-97440000D01*
X153490000Y-97400000D02*
X154960000Y-97400000D01*
X153499000Y-97360000D02*
X154960000Y-97360000D01*
X153510000Y-97320000D02*
X154960000Y-97320000D01*
X153521000Y-97280000D02*
X154960000Y-97280000D01*
X153533000Y-97240000D02*
X154960000Y-97240000D01*
X153545000Y-97200000D02*
X154960000Y-97200000D01*
X153558000Y-97160000D02*
X154960000Y-97160000D01*
X153572000Y-97120000D02*
X154960000Y-97120000D01*
X153587000Y-97080000D02*
X154960000Y-97080000D01*
X153602000Y-97040000D02*
X154960000Y-97040000D01*
X153618000Y-97000000D02*
X154960000Y-97000000D01*
X153635000Y-96960000D02*
X154960000Y-96960000D01*
X153653000Y-96920000D02*
X154960000Y-96920000D01*
X153671000Y-96880000D02*
X154960000Y-96880000D01*
X153691000Y-96840000D02*
X154960000Y-96840000D01*
X153711000Y-96800000D02*
X154960000Y-96800000D01*
X153732000Y-96760000D02*
X154960000Y-96760000D01*
X153754000Y-96720000D02*
X154960000Y-96720000D01*
X153777000Y-96680000D02*
X154960000Y-96680000D01*
X153801000Y-96640000D02*
X154960000Y-96640000D01*
X153825000Y-96600000D02*
X154960000Y-96600000D01*
X153851000Y-96560000D02*
X154960000Y-96560000D01*
X153878000Y-96520000D02*
X154960000Y-96520000D01*
X153906000Y-96480000D02*
X154960000Y-96480000D01*
X153935000Y-96440000D02*
X154960000Y-96440000D01*
X153965000Y-96400000D02*
X154960000Y-96400000D01*
X153997000Y-96360000D02*
X154960000Y-96360000D01*
X154030000Y-96320000D02*
X154960000Y-96320000D01*
X154064000Y-96280000D02*
X154960000Y-96280000D01*
X154099000Y-96240000D02*
X154960000Y-96240000D01*
X154136000Y-96200000D02*
X154960000Y-96200000D01*
X154175000Y-96160000D02*
X154960000Y-96160000D01*
X154215000Y-96120000D02*
X154960000Y-96120000D01*
X154257000Y-96080000D02*
X154960000Y-96080000D01*
X154275000Y-100554775D02*
X154775000Y-100554775D01*
X154301000Y-96040000D02*
X154960000Y-96040000D01*
X154348000Y-96000000D02*
X154960000Y-96000000D01*
X154396000Y-95960000D02*
X157604000Y-95960000D01*
X154447000Y-95920000D02*
X157553000Y-95920000D01*
X154501000Y-95880000D02*
X157499000Y-95880000D01*
X154525000Y-100804775D02*
X154525000Y-100304775D01*
X154557000Y-95840000D02*
X157443000Y-95840000D01*
X154617000Y-95800000D02*
X157383000Y-95800000D01*
X154681000Y-95760000D02*
X157319000Y-95760000D01*
X154749000Y-95720000D02*
X157251000Y-95720000D01*
X154823000Y-95680000D02*
X157177000Y-95680000D01*
X154902000Y-95640000D02*
X157098000Y-95640000D01*
X154989000Y-95600000D02*
X157011000Y-95600000D01*
X155086000Y-95560000D02*
X156914000Y-95560000D01*
X155195000Y-95520000D02*
X156805000Y-95520000D01*
X155323000Y-95480000D02*
X156677000Y-95480000D01*
X155483000Y-95440000D02*
X156517000Y-95440000D01*
X155717000Y-95400000D02*
X156283000Y-95400000D01*
X157040000Y-96000000D02*
X157652000Y-96000000D01*
X157040000Y-96040000D02*
X157699000Y-96040000D01*
X157040000Y-96080000D02*
X157743000Y-96080000D01*
X157040000Y-96120000D02*
X157785000Y-96120000D01*
X157040000Y-96160000D02*
X157825000Y-96160000D01*
X157040000Y-96200000D02*
X157864000Y-96200000D01*
X157040000Y-96240000D02*
X157901000Y-96240000D01*
X157040000Y-96280000D02*
X157936000Y-96280000D01*
X157040000Y-96320000D02*
X157970000Y-96320000D01*
X157040000Y-96360000D02*
X158003000Y-96360000D01*
X157040000Y-96400000D02*
X158035000Y-96400000D01*
X157040000Y-96440000D02*
X158065000Y-96440000D01*
X157040000Y-96480000D02*
X158094000Y-96480000D01*
X157040000Y-96520000D02*
X158122000Y-96520000D01*
X157040000Y-96560000D02*
X158149000Y-96560000D01*
X157040000Y-96600000D02*
X158175000Y-96600000D01*
X157040000Y-96640000D02*
X158199000Y-96640000D01*
X157040000Y-96680000D02*
X158223000Y-96680000D01*
X157040000Y-96720000D02*
X158246000Y-96720000D01*
X157040000Y-96760000D02*
X158268000Y-96760000D01*
X157040000Y-96800000D02*
X158289000Y-96800000D01*
X157040000Y-96840000D02*
X158309000Y-96840000D01*
X157040000Y-96880000D02*
X158329000Y-96880000D01*
X157040000Y-96920000D02*
X158347000Y-96920000D01*
X157040000Y-96960000D02*
X158365000Y-96960000D01*
X157040000Y-97000000D02*
X158382000Y-97000000D01*
X157040000Y-97040000D02*
X158398000Y-97040000D01*
X157040000Y-97080000D02*
X158413000Y-97080000D01*
X157040000Y-97120000D02*
X158428000Y-97120000D01*
X157040000Y-97160000D02*
X158442000Y-97160000D01*
X157040000Y-97200000D02*
X158455000Y-97200000D01*
X157040000Y-97240000D02*
X158467000Y-97240000D01*
X157040000Y-97280000D02*
X158479000Y-97280000D01*
X157040000Y-97320000D02*
X158490000Y-97320000D01*
X157040000Y-97360000D02*
X158501000Y-97360000D01*
X157040000Y-97400000D02*
X158510000Y-97400000D01*
X157040000Y-97440000D02*
X158519000Y-97440000D01*
X157040000Y-97480000D02*
X158528000Y-97480000D01*
X157040000Y-97520000D02*
X158536000Y-97520000D01*
X157040000Y-97560000D02*
X158543000Y-97560000D01*
X157040000Y-97600000D02*
X158549000Y-97600000D01*
X157040000Y-97640000D02*
X158555000Y-97640000D01*
X157040000Y-97680000D02*
X158560000Y-97680000D01*
X157040000Y-97720000D02*
X158565000Y-97720000D01*
X157040000Y-97760000D02*
X158569000Y-97760000D01*
X157040000Y-97800000D02*
X158572000Y-97800000D01*
X157040000Y-97840000D02*
X158575000Y-97840000D01*
X157040000Y-97880000D02*
X158577000Y-97880000D01*
X157040000Y-97920000D02*
X158579000Y-97920000D01*
X157040000Y-97960000D02*
X158580000Y-97960000D01*
X157040000Y-98000000D02*
X158580000Y-98000000D01*
X158620000Y-98000000D02*
G75*
G02*
X153380000Y-98000000I-2620000J0D01*
G01*
X153380000Y-98000000D02*
G75*
G02*
X158620000Y-98000000I2620000J0D01*
G01*
%TO.C,J_DBG1*%
X153840000Y-109690000D02*
X155000000Y-109690000D01*
X153840000Y-110500000D02*
X153840000Y-109690000D01*
X153840000Y-111310000D02*
X153840000Y-113785000D01*
X153840000Y-111310000D02*
X154333292Y-111310000D01*
X153840000Y-113785000D02*
X154682077Y-113785000D01*
X155317923Y-113785000D02*
X156160000Y-113785000D01*
X155666708Y-111310000D02*
X156160000Y-111310000D01*
X156160000Y-111310000D02*
X156160000Y-113785000D01*
%TO.C,R_FB1*%
X160120000Y-97856359D02*
X160120000Y-98163641D01*
X160880000Y-97856359D02*
X160880000Y-98163641D01*
%TO.C,C_3V3_bypass1*%
X158392164Y-101140000D02*
X158607836Y-101140000D01*
X158392164Y-101860000D02*
X158607836Y-101860000D01*
%TD*%
M02*
