M48
; DRILL file KiCad 10.0.1 date 2026-05-03T11:39:41
; FORMAT={-:-/ absolute / metric / decimal}
; #@! TF.CreationDate,2026-05-03T11:39:41-04:00
; #@! TF.GenerationSoftware,Kicad,Pcbnew,10.0.1
; #@! TF.FileFunction,Plated,1,2,PTH
FMAT,2
METRIC
; #@! TA.AperFunction,Plated,PTH,ViaDrill
T1C0.300
; #@! TA.AperFunction,Plated,PTH,ComponentDrill
T2C0.650
; #@! TA.AperFunction,Plated,PTH,ComponentDrill
T3C0.750
; #@! TA.AperFunction,Plated,PTH,ComponentDrill
T4C0.800
; #@! TA.AperFunction,Plated,PTH,ComponentDrill
T5C1.000
; #@! TA.AperFunction,Plated,PTH,ComponentDrill
T6C1.500
%
G90
G05
T1
X131.2Y-85.16
X131.2Y-97.86
X131.2Y-110.56
X131.2Y-123.26
X150.58Y-85.16
X150.58Y-110.56
X150.58Y-123.26
X155.55Y-83.775
X159.5Y-83.52
X160.05Y-86.5
X161.287Y-81.0
T2
X155.0Y-110.5
X155.0Y-111.77
X155.0Y-113.04
T3
X154.55Y-122.5
X154.55Y-124.5
T4
X126.0Y-80.52
X126.0Y-83.02
X156.0Y-97.0
X156.0Y-99.0
X156.0Y-103.5
X156.0Y-106.0
X159.5Y-112.1
X159.5Y-114.1
X159.5Y-116.1
T5
X127.5Y-89.4
X127.5Y-91.94
X127.5Y-94.48
X127.5Y-97.02
X127.5Y-99.56
X127.5Y-102.1
X127.5Y-104.64
X127.5Y-107.18
X127.5Y-111.52
X127.5Y-114.06
X127.5Y-116.6
X127.5Y-120.44
X127.5Y-122.98
X127.5Y-125.52
X141.474Y-109.91
X144.014Y-109.91
X146.554Y-109.91
T6
X159.5Y-110.0
X159.5Y-118.2
M30
