%TF.GenerationSoftware,KiCad,Pcbnew,10.0.1*%
%TF.CreationDate,2026-05-03T11:39:12-04:00*%
%TF.ProjectId,bionic_butterfly,62696f6e-6963-45f6-9275-74746572666c,rev?*%
%TF.SameCoordinates,Original*%
%TF.FileFunction,Copper,L2,Bot*%
%TF.FilePolarity,Positive*%
%FSLAX46Y46*%
G04 Gerber Fmt 4.6, Leading zero omitted, Abs format (unit mm)*
G04 Created by KiCad (PCBNEW 10.0.1) date 2026-05-03 11:39:12*
%MOMM*%
%LPD*%
G01*
G04 APERTURE LIST*
G04 Aperture macros list*
%AMRoundRect*
0 Rectangle with rounded corners*
0 $1 Rounding radius*
0 $2 $3 $4 $5 $6 $7 $8 $9 X,Y pos of 4 corners*
0 Add a 4 corners polygon primitive as box body*
4,1,4,$2,$3,$4,$5,$6,$7,$8,$9,$2,$3,0*
0 Add four circle primitives for the rounded corners*
1,1,$1+$1,$2,$3*
1,1,$1+$1,$4,$5*
1,1,$1+$1,$6,$7*
1,1,$1+$1,$8,$9*
0 Add four rect primitives between the rounded corners*
20,1,$1+$1,$2,$3,$4,$5,0*
20,1,$1+$1,$4,$5,$6,$7,0*
20,1,$1+$1,$6,$7,$8,$9,0*
20,1,$1+$1,$8,$9,$2,$3,0*%
G04 Aperture macros list end*
%TA.AperFunction,ComponentPad*%
%ADD10O,3.500000X2.200000*%
%TD*%
%TA.AperFunction,ComponentPad*%
%ADD11R,2.500000X1.500000*%
%TD*%
%TA.AperFunction,ComponentPad*%
%ADD12O,2.500000X1.500000*%
%TD*%
%TA.AperFunction,ComponentPad*%
%ADD13RoundRect,0.250000X0.625000X-0.350000X0.625000X0.350000X-0.625000X0.350000X-0.625000X-0.350000X0*%
%TD*%
%TA.AperFunction,ComponentPad*%
%ADD14O,1.750000X1.200000*%
%TD*%
%TA.AperFunction,ComponentPad*%
%ADD15R,1.700000X1.700000*%
%TD*%
%TA.AperFunction,ComponentPad*%
%ADD16C,1.700000*%
%TD*%
%TA.AperFunction,ComponentPad*%
%ADD17RoundRect,0.200000X-0.600000X-0.600000X0.600000X-0.600000X0.600000X0.600000X-0.600000X0.600000X0*%
%TD*%
%TA.AperFunction,ComponentPad*%
%ADD18C,1.600000*%
%TD*%
%TA.AperFunction,ComponentPad*%
%ADD19RoundRect,0.250000X0.550000X-0.550000X0.550000X0.550000X-0.550000X0.550000X-0.550000X-0.550000X0*%
%TD*%
%TA.AperFunction,ComponentPad*%
%ADD20R,1.000000X1.000000*%
%TD*%
%TA.AperFunction,ComponentPad*%
%ADD21C,1.000000*%
%TD*%
%TA.AperFunction,ViaPad*%
%ADD22C,0.600000*%
%TD*%
G04 APERTURE END LIST*
D10*
%TO.P,SW1,*%
%TO.N,*%
X159500000Y-118200000D03*
X159500000Y-110000000D03*
D11*
%TO.P,SW1,1,A_1*%
%TO.N,/VBAT*%
X159500000Y-116100000D03*
D12*
%TO.P,SW1,2,B_2*%
%TO.N,/VBAT_SW*%
X159500000Y-114100000D03*
%TO.P,SW1,3,C_3*%
%TO.N,unconnected-(SW1-C-Pad3)*%
X159500000Y-112100000D03*
%TD*%
D13*
%TO.P,J_BAT1,1,Pin_1_1*%
%TO.N,/VBAT*%
X154550000Y-124500000D03*
D14*
%TO.P,J_BAT1,2,Pin_2_2*%
%TO.N,GND*%
X154550000Y-122500000D03*
%TD*%
D15*
%TO.P,J_SRV2,1,Pin_1_1*%
%TO.N,GND*%
X127500000Y-120440000D03*
D16*
%TO.P,J_SRV2,2,Pin_2_2*%
%TO.N,+5V*%
X127500000Y-122980000D03*
%TO.P,J_SRV2,3,Pin_3_3*%
%TO.N,Net-(J_SRV2-Pin_3)*%
X127500000Y-125520000D03*
%TD*%
D15*
%TO.P,J_SRV1,1,Pin_1_1*%
%TO.N,GND*%
X127500000Y-111520000D03*
D16*
%TO.P,J_SRV1,2,Pin_2_2*%
%TO.N,+5V*%
X127500000Y-114060000D03*
%TO.P,J_SRV1,3,Pin_3_3*%
%TO.N,Net-(J_SRV1-Pin_3)*%
X127500000Y-116600000D03*
%TD*%
D17*
%TO.P,A1,D1*%
%TO.N,N/C*%
X141474100Y-109910000D03*
D18*
%TO.P,A1,D2*%
X144014100Y-109910000D03*
%TO.P,A1,D3*%
X146554100Y-109910000D03*
%TD*%
D19*
%TO.P,C_3V3,1*%
%TO.N,/3V3_OUT*%
X156000000Y-106000000D03*
D18*
%TO.P,C_3V3,2*%
%TO.N,GND*%
X156000000Y-103500000D03*
%TD*%
D15*
%TO.P,J_EXT1,1,Pin_1_1*%
%TO.N,GND*%
X127500000Y-89400000D03*
D16*
%TO.P,J_EXT1,2,Pin_2_2*%
%TO.N,+5V*%
X127500000Y-91940000D03*
%TO.P,J_EXT1,3,Pin_3_3*%
%TO.N,/GPIO4*%
X127500000Y-94480000D03*
%TO.P,J_EXT1,4,Pin_4_4*%
%TO.N,/GPIO5*%
X127500000Y-97020000D03*
%TO.P,J_EXT1,5,Pin_5_5*%
%TO.N,/GPIO6*%
X127500000Y-99560000D03*
%TO.P,J_EXT1,6,Pin_6_6*%
%TO.N,/GPIO7*%
X127500000Y-102100000D03*
%TO.P,J_EXT1,7,Pin_7_7*%
%TO.N,/GPIO8*%
X127500000Y-104640000D03*
%TO.P,J_EXT1,8,Pin_8_8*%
%TO.N,/GPIO9*%
X127500000Y-107180000D03*
%TD*%
D19*
%TO.P,C_BAT1,1*%
%TO.N,/VBAT*%
X126000000Y-83020000D03*
D18*
%TO.P,C_BAT1,2*%
%TO.N,GND*%
X126000000Y-80520000D03*
%TD*%
D19*
%TO.P,C_5V1,1*%
%TO.N,+5V*%
X156000000Y-99000000D03*
D18*
%TO.P,C_5V1,2*%
%TO.N,GND*%
X156000000Y-97000000D03*
%TD*%
D20*
%TO.P,J_DBG1,1,Pin_1_1*%
%TO.N,/SWDIO*%
X155000000Y-110500000D03*
D21*
%TO.P,J_DBG1,2,Pin_2_2*%
%TO.N,/SWDCLK*%
X155000000Y-111770000D03*
%TO.P,J_DBG1,3,Pin_3_3*%
%TO.N,GND*%
X155000000Y-113040000D03*
%TD*%
D22*
%TO.N,GND*%
X131200000Y-85160000D03*
X155550000Y-83775000D03*
X161287500Y-81000000D03*
X159500000Y-83520000D03*
X131200000Y-123260000D03*
X150580000Y-123260000D03*
X150580000Y-85160000D03*
X150580000Y-110560000D03*
X131200000Y-110560000D03*
X131200000Y-97860000D03*
X160050000Y-86500000D03*
%TD*%
%TA.AperFunction,Conductor*%
%TO.N,GND*%
G36*
X137388440Y-79034852D02*
G01*
X137402792Y-79069500D01*
X137388440Y-79104148D01*
X137382593Y-79109142D01*
X137285206Y-79179897D01*
X137134897Y-79330206D01*
X137009952Y-79502178D01*
X137009947Y-79502186D01*
X136913443Y-79691586D01*
X136847754Y-79893756D01*
X136847753Y-79893759D01*
X136814500Y-80103713D01*
X136814500Y-80316286D01*
X136847753Y-80526240D01*
X136847754Y-80526243D01*
X136913443Y-80728413D01*
X137009947Y-80917813D01*
X137009952Y-80917821D01*
X137134897Y-81089793D01*
X137134901Y-81089798D01*
X137285202Y-81240099D01*
X137285206Y-81240102D01*
X137285208Y-81240104D01*
X137457184Y-81365051D01*
X137646588Y-81461557D01*
X137848757Y-81527246D01*
X138058713Y-81560500D01*
X138058714Y-81560500D01*
X138271286Y-81560500D01*
X138271287Y-81560500D01*
X138481243Y-81527246D01*
X138683412Y-81461557D01*
X138872816Y-81365051D01*
X139044792Y-81240104D01*
X139044795Y-81240100D01*
X139044798Y-81240099D01*
X139195099Y-81089798D01*
X139195100Y-81089795D01*
X139195104Y-81089792D01*
X139320051Y-80917816D01*
X139416557Y-80728412D01*
X139482246Y-80526243D01*
X139515500Y-80316287D01*
X139515500Y-80103713D01*
X139482246Y-79893757D01*
X139416557Y-79691588D01*
X139320051Y-79502184D01*
X139195104Y-79330208D01*
X139195102Y-79330206D01*
X139195099Y-79330202D01*
X139044798Y-79179901D01*
X139044793Y-79179897D01*
X138947407Y-79109142D01*
X138927811Y-79077165D01*
X138936566Y-79040699D01*
X138968543Y-79021103D01*
X138976208Y-79020500D01*
X142803792Y-79020500D01*
X142838440Y-79034852D01*
X142852792Y-79069500D01*
X142838440Y-79104148D01*
X142832593Y-79109142D01*
X142735206Y-79179897D01*
X142584897Y-79330206D01*
X142459952Y-79502178D01*
X142459947Y-79502186D01*
X142363443Y-79691586D01*
X142297754Y-79893756D01*
X142297753Y-79893759D01*
X142264500Y-80103713D01*
X142264500Y-80316286D01*
X142297753Y-80526240D01*
X142297754Y-80526243D01*
X142363443Y-80728413D01*
X142459947Y-80917813D01*
X142459952Y-80917821D01*
X142584897Y-81089793D01*
X142584901Y-81089798D01*
X142735202Y-81240099D01*
X142735206Y-81240102D01*
X142735208Y-81240104D01*
X142907184Y-81365051D01*
X143096588Y-81461557D01*
X143298757Y-81527246D01*
X143508713Y-81560500D01*
X143508714Y-81560500D01*
X143721286Y-81560500D01*
X143721287Y-81560500D01*
X143931243Y-81527246D01*
X144133412Y-81461557D01*
X144322816Y-81365051D01*
X144494792Y-81240104D01*
X144494795Y-81240100D01*
X144494798Y-81240099D01*
X144645099Y-81089798D01*
X144645100Y-81089795D01*
X144645104Y-81089792D01*
X144770051Y-80917816D01*
X144866557Y-80728412D01*
X144932246Y-80526243D01*
X144965500Y-80316287D01*
X144965500Y-80103713D01*
X144932246Y-79893757D01*
X144866557Y-79691588D01*
X144770051Y-79502184D01*
X144645104Y-79330208D01*
X144645102Y-79330206D01*
X144645099Y-79330202D01*
X144494798Y-79179901D01*
X144494793Y-79179897D01*
X144397407Y-79109142D01*
X144377811Y-79077165D01*
X144386566Y-79040699D01*
X144418543Y-79021103D01*
X144426208Y-79020500D01*
X161950500Y-79020500D01*
X161985148Y-79034852D01*
X161999500Y-79069500D01*
X161999500Y-129161000D01*
X161985148Y-129195648D01*
X161950500Y-129210000D01*
X143419972Y-129210000D01*
X143385324Y-129195648D01*
X143370972Y-129161000D01*
X143385324Y-129126352D01*
X143389917Y-129122300D01*
X146675796Y-126570500D01*
X147990000Y-125549895D01*
X147990000Y-124095724D01*
X153474500Y-124095724D01*
X153474500Y-124904275D01*
X153477353Y-124934698D01*
X153477353Y-124934699D01*
X153522204Y-125062876D01*
X153522208Y-125062885D01*
X153602849Y-125172150D01*
X153712114Y-125252791D01*
X153712117Y-125252792D01*
X153712118Y-125252793D01*
X153712120Y-125252793D01*
X153712123Y-125252795D01*
X153840301Y-125297646D01*
X153870734Y-125300500D01*
X153870744Y-125300500D01*
X155229256Y-125300500D01*
X155229266Y-125300500D01*
X155259699Y-125297646D01*
X155387882Y-125252793D01*
X155441020Y-125213576D01*
X155497150Y-125172150D01*
X155577791Y-125062885D01*
X155577791Y-125062884D01*
X155577793Y-125062882D01*
X155622646Y-124934699D01*
X155625500Y-124904266D01*
X155625500Y-124095734D01*
X155622646Y-124065301D01*
X155577793Y-123937118D01*
X155577792Y-123937117D01*
X155577791Y-123937114D01*
X155497150Y-123827849D01*
X155387885Y-123747208D01*
X155387876Y-123747204D01*
X155259698Y-123702353D01*
X155229275Y-123699500D01*
X155229266Y-123699500D01*
X153870734Y-123699500D01*
X153870724Y-123699500D01*
X153840301Y-123702353D01*
X153840300Y-123702353D01*
X153712123Y-123747204D01*
X153712114Y-123747208D01*
X153602849Y-123827849D01*
X153522208Y-123937114D01*
X153522204Y-123937123D01*
X153477353Y-124065300D01*
X153477353Y-124065301D01*
X153474500Y-124095724D01*
X147990000Y-124095724D01*
X147990000Y-122250000D01*
X153200885Y-122250000D01*
X154269670Y-122250000D01*
X154249925Y-122269745D01*
X154200556Y-122355255D01*
X154175000Y-122450630D01*
X154175000Y-122549370D01*
X154200556Y-122644745D01*
X154249925Y-122730255D01*
X154269670Y-122750000D01*
X153200885Y-122750000D01*
X153202085Y-122757583D01*
X153255589Y-122922251D01*
X153334197Y-123076527D01*
X153334199Y-123076530D01*
X153435968Y-123216603D01*
X153435972Y-123216608D01*
X153558392Y-123339028D01*
X153558396Y-123339031D01*
X153698469Y-123440800D01*
X153698472Y-123440802D01*
X153852748Y-123519410D01*
X154017415Y-123572913D01*
X154017418Y-123572914D01*
X154188429Y-123600000D01*
X154300000Y-123600000D01*
X154300000Y-122780330D01*
X154319745Y-122800075D01*
X154405255Y-122849444D01*
X154500630Y-122875000D01*
X154599370Y-122875000D01*
X154694745Y-122849444D01*
X154780255Y-122800075D01*
X154800000Y-122780330D01*
X154800000Y-123600000D01*
X154911571Y-123600000D01*
X155082581Y-123572914D01*
X155082584Y-123572913D01*
X155247251Y-123519410D01*
X155401527Y-123440802D01*
X155401530Y-123440800D01*
X155541603Y-123339031D01*
X155541608Y-123339028D01*
X155664028Y-123216608D01*
X155664031Y-123216603D01*
X155765800Y-123076530D01*
X155765802Y-123076527D01*
X155844410Y-122922251D01*
X155897914Y-122757583D01*
X155899115Y-122750000D01*
X154830330Y-122750000D01*
X154850075Y-122730255D01*
X154899444Y-122644745D01*
X154925000Y-122549370D01*
X154925000Y-122450630D01*
X154899444Y-122355255D01*
X154850075Y-122269745D01*
X154830330Y-122250000D01*
X155899115Y-122250000D01*
X155897914Y-122242416D01*
X155844410Y-122077748D01*
X155765802Y-121923472D01*
X155765800Y-121923469D01*
X155664031Y-121783396D01*
X155664028Y-121783392D01*
X155541608Y-121660972D01*
X155541603Y-121660968D01*
X155401530Y-121559199D01*
X155401527Y-121559197D01*
X155247251Y-121480589D01*
X155082584Y-121427086D01*
X155082581Y-121427085D01*
X154911571Y-121400000D01*
X154800000Y-121400000D01*
X154800000Y-122219670D01*
X154780255Y-122199925D01*
X154694745Y-122150556D01*
X154599370Y-122125000D01*
X154500630Y-122125000D01*
X154405255Y-122150556D01*
X154319745Y-122199925D01*
X154300000Y-122219670D01*
X154300000Y-121400000D01*
X154188429Y-121400000D01*
X154017418Y-121427085D01*
X154017415Y-121427086D01*
X153852748Y-121480589D01*
X153698472Y-121559197D01*
X153698469Y-121559199D01*
X153558396Y-121660968D01*
X153435968Y-121783396D01*
X153334199Y-121923469D01*
X153334197Y-121923472D01*
X153255589Y-122077748D01*
X153202085Y-122242416D01*
X153200885Y-122250000D01*
X147990000Y-122250000D01*
X147990000Y-121210000D01*
X133790000Y-121210000D01*
X133790000Y-125549895D01*
X138390083Y-129122300D01*
X138408645Y-129154886D01*
X138398728Y-129191055D01*
X138366142Y-129209617D01*
X138360028Y-129210000D01*
X123546516Y-129210000D01*
X123511868Y-129195648D01*
X123497516Y-129161000D01*
X123497516Y-125416535D01*
X126449500Y-125416535D01*
X126449500Y-125623465D01*
X126489870Y-125826420D01*
X126569059Y-126017598D01*
X126684023Y-126189655D01*
X126830345Y-126335977D01*
X127002402Y-126450941D01*
X127193580Y-126530130D01*
X127396535Y-126570500D01*
X127396538Y-126570500D01*
X127603462Y-126570500D01*
X127603465Y-126570500D01*
X127806420Y-126530130D01*
X127997598Y-126450941D01*
X128169655Y-126335977D01*
X128315977Y-126189655D01*
X128430941Y-126017598D01*
X128510130Y-125826420D01*
X128550500Y-125623465D01*
X128550500Y-125416535D01*
X128510130Y-125213580D01*
X128430941Y-125022402D01*
X128315977Y-124850345D01*
X128169655Y-124704023D01*
X127997598Y-124589059D01*
X127997596Y-124589058D01*
X127806423Y-124509871D01*
X127806417Y-124509869D01*
X127724572Y-124493589D01*
X127603465Y-124469500D01*
X127396535Y-124469500D01*
X127295520Y-124489592D01*
X127193582Y-124509869D01*
X127193576Y-124509871D01*
X127002403Y-124589058D01*
X126830345Y-124704022D01*
X126684022Y-124850345D01*
X126569058Y-125022403D01*
X126489871Y-125213576D01*
X126489869Y-125213582D01*
X126473148Y-125297646D01*
X126449500Y-125416535D01*
X123497516Y-125416535D01*
X123497516Y-122876535D01*
X126449500Y-122876535D01*
X126449500Y-123083465D01*
X126475983Y-123216603D01*
X126489869Y-123286417D01*
X126489871Y-123286423D01*
X126569058Y-123477596D01*
X126569059Y-123477598D01*
X126684023Y-123649655D01*
X126830345Y-123795977D01*
X127002402Y-123910941D01*
X127193580Y-123990130D01*
X127396535Y-124030500D01*
X127396538Y-124030500D01*
X127603462Y-124030500D01*
X127603465Y-124030500D01*
X127806420Y-123990130D01*
X127997598Y-123910941D01*
X128169655Y-123795977D01*
X128315977Y-123649655D01*
X128430941Y-123477598D01*
X128510130Y-123286420D01*
X128550500Y-123083465D01*
X128550500Y-122876535D01*
X128510130Y-122673580D01*
X128430941Y-122482402D01*
X128315977Y-122310345D01*
X128169655Y-122164023D01*
X127997598Y-122049059D01*
X127997596Y-122049058D01*
X127806423Y-121969871D01*
X127806417Y-121969869D01*
X127724572Y-121953589D01*
X127603465Y-121929500D01*
X127396535Y-121929500D01*
X127295520Y-121949592D01*
X127193582Y-121969869D01*
X127193576Y-121969871D01*
X127002403Y-122049058D01*
X126830345Y-122164022D01*
X126684022Y-122310345D01*
X126569058Y-122482403D01*
X126489871Y-122673576D01*
X126489869Y-122673582D01*
X126474669Y-122750000D01*
X126449500Y-122876535D01*
X123497516Y-122876535D01*
X123497516Y-119542165D01*
X126150000Y-119542165D01*
X126150000Y-120190000D01*
X127066988Y-120190000D01*
X127034075Y-120247007D01*
X127000000Y-120374174D01*
X127000000Y-120505826D01*
X127034075Y-120632993D01*
X127066988Y-120690000D01*
X126150000Y-120690000D01*
X126150000Y-121337834D01*
X126156401Y-121397372D01*
X126156401Y-121397373D01*
X126206648Y-121532091D01*
X126292811Y-121647188D01*
X126407908Y-121733351D01*
X126542626Y-121783598D01*
X126602166Y-121790000D01*
X127250000Y-121790000D01*
X127250000Y-120873012D01*
X127307007Y-120905925D01*
X127434174Y-120940000D01*
X127565826Y-120940000D01*
X127692993Y-120905925D01*
X127750000Y-120873012D01*
X127750000Y-121790000D01*
X128397834Y-121790000D01*
X128457372Y-121783598D01*
X128457373Y-121783598D01*
X128592091Y-121733351D01*
X128707188Y-121647188D01*
X128793351Y-121532091D01*
X128843598Y-121397373D01*
X128843598Y-121397372D01*
X128850000Y-121337834D01*
X128850000Y-120690000D01*
X127933012Y-120690000D01*
X127965925Y-120632993D01*
X128000000Y-120505826D01*
X128000000Y-120374174D01*
X127965925Y-120247007D01*
X127933012Y-120190000D01*
X128850000Y-120190000D01*
X128850000Y-119542165D01*
X128843598Y-119482627D01*
X128843598Y-119482626D01*
X128793351Y-119347908D01*
X128707188Y-119232811D01*
X128592091Y-119146648D01*
X128457373Y-119096401D01*
X128397834Y-119090000D01*
X127750000Y-119090000D01*
X127750000Y-120006988D01*
X127692993Y-119974075D01*
X127565826Y-119940000D01*
X127434174Y-119940000D01*
X127307007Y-119974075D01*
X127250000Y-120006988D01*
X127250000Y-119090000D01*
X126602166Y-119090000D01*
X126542627Y-119096401D01*
X126542626Y-119096401D01*
X126407908Y-119146648D01*
X126292811Y-119232811D01*
X126206648Y-119347908D01*
X126156401Y-119482626D01*
X126156401Y-119482627D01*
X126150000Y-119542165D01*
X123497516Y-119542165D01*
X123497516Y-118097648D01*
X157549500Y-118097648D01*
X157549500Y-118302351D01*
X157581522Y-118504531D01*
X157581523Y-118504534D01*
X157644779Y-118699217D01*
X157737714Y-118881612D01*
X157737716Y-118881615D01*
X157858035Y-119047220D01*
X157858039Y-119047225D01*
X158002775Y-119191961D01*
X158002779Y-119191964D01*
X158002781Y-119191966D01*
X158168390Y-119312287D01*
X158350781Y-119405220D01*
X158545466Y-119468477D01*
X158747648Y-119500500D01*
X158747649Y-119500500D01*
X160252351Y-119500500D01*
X160252352Y-119500500D01*
X160454534Y-119468477D01*
X160649219Y-119405220D01*
X160831610Y-119312287D01*
X160997219Y-119191966D01*
X160997222Y-119191962D01*
X160997225Y-119191961D01*
X161141961Y-119047225D01*
X161141962Y-119047222D01*
X161141966Y-119047219D01*
X161262287Y-118881610D01*
X161355220Y-118699219D01*
X161418477Y-118504534D01*
X161450500Y-118302352D01*
X161450500Y-118097648D01*
X161418477Y-117895466D01*
X161355220Y-117700781D01*
X161262287Y-117518390D01*
X161141966Y-117352781D01*
X161141964Y-117352779D01*
X161141961Y-117352775D01*
X160997225Y-117208039D01*
X160997220Y-117208035D01*
X160851847Y-117102415D01*
X160832251Y-117070438D01*
X160841006Y-117033972D01*
X160853419Y-117022036D01*
X160894552Y-116994552D01*
X160938867Y-116928231D01*
X160950500Y-116869748D01*
X160950500Y-115330252D01*
X160938867Y-115271769D01*
X160912301Y-115232012D01*
X160894552Y-115205447D01*
X160854795Y-115178882D01*
X160828231Y-115161133D01*
X160769748Y-115149500D01*
X158230252Y-115149500D01*
X158171769Y-115161133D01*
X158105447Y-115205447D01*
X158061133Y-115271769D01*
X158049500Y-115330252D01*
X158049500Y-116869748D01*
X158061133Y-116928231D01*
X158083290Y-116961391D01*
X158105448Y-116994553D01*
X158137185Y-117015758D01*
X158146571Y-117022030D01*
X158146573Y-117022031D01*
X158167409Y-117053213D01*
X158160093Y-117089995D01*
X158148153Y-117102415D01*
X158002774Y-117208039D01*
X157858039Y-117352775D01*
X157858035Y-117352779D01*
X157737716Y-117518384D01*
X157737714Y-117518387D01*
X157644779Y-117700782D01*
X157581523Y-117895465D01*
X157581522Y-117895468D01*
X157549500Y-118097648D01*
X123497516Y-118097648D01*
X123497516Y-116496535D01*
X126449500Y-116496535D01*
X126449500Y-116703465D01*
X126476290Y-116838150D01*
X126489869Y-116906417D01*
X126489871Y-116906423D01*
X126549550Y-117050500D01*
X126569059Y-117097598D01*
X126684023Y-117269655D01*
X126830345Y-117415977D01*
X127002402Y-117530941D01*
X127193580Y-117610130D01*
X127396535Y-117650500D01*
X127396538Y-117650500D01*
X127603462Y-117650500D01*
X127603465Y-117650500D01*
X127806420Y-117610130D01*
X127997598Y-117530941D01*
X128169655Y-117415977D01*
X128315977Y-117269655D01*
X128430941Y-117097598D01*
X128510130Y-116906420D01*
X128550500Y-116703465D01*
X128550500Y-116496535D01*
X128510130Y-116293580D01*
X128430941Y-116102402D01*
X128315977Y-115930345D01*
X128169655Y-115784023D01*
X127997598Y-115669059D01*
X127997596Y-115669058D01*
X127806423Y-115589871D01*
X127806417Y-115589869D01*
X127724572Y-115573589D01*
X127603465Y-115549500D01*
X127396535Y-115549500D01*
X127295520Y-115569592D01*
X127193582Y-115589869D01*
X127193576Y-115589871D01*
X127002403Y-115669058D01*
X126830345Y-115784022D01*
X126684022Y-115930345D01*
X126569058Y-116102403D01*
X126489871Y-116293576D01*
X126489869Y-116293582D01*
X126469592Y-116395520D01*
X126449500Y-116496535D01*
X123497516Y-116496535D01*
X123497516Y-113956535D01*
X126449500Y-113956535D01*
X126449500Y-114163465D01*
X126489870Y-114366420D01*
X126569059Y-114557598D01*
X126684023Y-114729655D01*
X126830345Y-114875977D01*
X127002402Y-114990941D01*
X127193580Y-115070130D01*
X127396535Y-115110500D01*
X127396538Y-115110500D01*
X127603462Y-115110500D01*
X127603465Y-115110500D01*
X127806420Y-115070130D01*
X127997598Y-114990941D01*
X128169655Y-114875977D01*
X128315977Y-114729655D01*
X128430941Y-114557598D01*
X128510130Y-114366420D01*
X128550500Y-114163465D01*
X128550500Y-113956535D01*
X128539766Y-113902572D01*
X154490978Y-113902572D01*
X154526324Y-113926190D01*
X154708310Y-114001570D01*
X154901512Y-114040000D01*
X155098488Y-114040000D01*
X155267487Y-114006384D01*
X158049500Y-114006384D01*
X158049500Y-114193616D01*
X158073740Y-114315479D01*
X158086026Y-114377248D01*
X158086029Y-114377258D01*
X158157675Y-114550225D01*
X158157676Y-114550227D01*
X158157678Y-114550231D01*
X158261698Y-114705908D01*
X158394092Y-114838302D01*
X158549769Y-114942322D01*
X158549774Y-114942324D01*
X158722741Y-115013970D01*
X158722743Y-115013970D01*
X158722749Y-115013973D01*
X158906384Y-115050500D01*
X158906387Y-115050500D01*
X160093613Y-115050500D01*
X160093616Y-115050500D01*
X160277251Y-115013973D01*
X160450231Y-114942322D01*
X160605908Y-114838302D01*
X160738302Y-114705908D01*
X160842322Y-114550231D01*
X160913973Y-114377251D01*
X160950500Y-114193616D01*
X160950500Y-114006384D01*
X160913973Y-113822749D01*
X160885320Y-113753576D01*
X160842324Y-113649774D01*
X160842322Y-113649769D01*
X160738302Y-113494092D01*
X160605908Y-113361698D01*
X160577701Y-113342851D01*
X160560996Y-113331689D01*
X160450231Y-113257678D01*
X160450227Y-113257676D01*
X160450225Y-113257675D01*
X160277258Y-113186029D01*
X160277248Y-113186026D01*
X160203194Y-113171296D01*
X160093616Y-113149500D01*
X158906384Y-113149500D01*
X158814986Y-113167680D01*
X158722751Y-113186026D01*
X158722741Y-113186029D01*
X158549774Y-113257675D01*
X158549770Y-113257677D01*
X158549769Y-113257678D01*
X158510195Y-113284120D01*
X158394092Y-113361697D01*
X158261697Y-113494092D01*
X158157675Y-113649774D01*
X158086029Y-113822741D01*
X158086026Y-113822751D01*
X158071881Y-113893868D01*
X158049500Y-114006384D01*
X155267487Y-114006384D01*
X155291689Y-114001570D01*
X155291690Y-114001570D01*
X155395173Y-113958707D01*
X155473672Y-113926191D01*
X155509019Y-113902572D01*
X155000000Y-113393553D01*
X154490978Y-113902572D01*
X128539766Y-113902572D01*
X128510130Y-113753580D01*
X128430941Y-113562402D01*
X128315977Y-113390345D01*
X128169655Y-113244023D01*
X127997598Y-113129059D01*
X127997596Y-113129058D01*
X127806423Y-113049871D01*
X127806417Y-113049869D01*
X127724572Y-113033589D01*
X127603465Y-113009500D01*
X127396535Y-113009500D01*
X127295520Y-113029592D01*
X127193582Y-113049869D01*
X127193576Y-113049871D01*
X127002403Y-113129058D01*
X126830345Y-113244022D01*
X126684022Y-113390345D01*
X126569058Y-113562403D01*
X126489871Y-113753576D01*
X126489869Y-113753582D01*
X126476111Y-113822751D01*
X126449500Y-113956535D01*
X123497516Y-113956535D01*
X123497516Y-112941512D01*
X154000000Y-112941512D01*
X154000000Y-113138487D01*
X154038429Y-113331689D01*
X154038429Y-113331690D01*
X154113810Y-113513677D01*
X154137426Y-113549020D01*
X154646446Y-113040000D01*
X154646446Y-113039999D01*
X154603660Y-112997213D01*
X154675000Y-112997213D01*
X154675000Y-113082787D01*
X154697149Y-113165445D01*
X154739936Y-113239554D01*
X154800446Y-113300064D01*
X154874555Y-113342851D01*
X154957213Y-113365000D01*
X155042787Y-113365000D01*
X155125445Y-113342851D01*
X155199554Y-113300064D01*
X155260064Y-113239554D01*
X155302851Y-113165445D01*
X155325000Y-113082787D01*
X155325000Y-113039999D01*
X155353553Y-113039999D01*
X155353553Y-113040000D01*
X155862572Y-113549019D01*
X155886191Y-113513672D01*
X155961570Y-113331690D01*
X155961570Y-113331689D01*
X156000000Y-113138487D01*
X156000000Y-112941512D01*
X155961570Y-112748310D01*
X155961570Y-112748309D01*
X155886190Y-112566324D01*
X155862572Y-112530978D01*
X155353553Y-113039999D01*
X155325000Y-113039999D01*
X155325000Y-112997213D01*
X155302851Y-112914555D01*
X155260064Y-112840446D01*
X155199554Y-112779936D01*
X155125445Y-112737149D01*
X155042787Y-112715000D01*
X154957213Y-112715000D01*
X154874555Y-112737149D01*
X154800446Y-112779936D01*
X154739936Y-112840446D01*
X154697149Y-112914555D01*
X154675000Y-112997213D01*
X154603660Y-112997213D01*
X154137426Y-112530979D01*
X154137425Y-112530979D01*
X154113810Y-112566321D01*
X154038429Y-112748309D01*
X154038429Y-112748310D01*
X154000000Y-112941512D01*
X123497516Y-112941512D01*
X123497516Y-110622165D01*
X126150000Y-110622165D01*
X126150000Y-111270000D01*
X127066988Y-111270000D01*
X127034075Y-111327007D01*
X127000000Y-111454174D01*
X127000000Y-111585826D01*
X127034075Y-111712993D01*
X127066988Y-111770000D01*
X126150000Y-111770000D01*
X126150000Y-112417834D01*
X126156401Y-112477372D01*
X126156401Y-112477373D01*
X126206648Y-112612091D01*
X126292811Y-112727188D01*
X126407908Y-112813351D01*
X126542626Y-112863598D01*
X126602166Y-112870000D01*
X127250000Y-112870000D01*
X127250000Y-111953012D01*
X127307007Y-111985925D01*
X127434174Y-112020000D01*
X127565826Y-112020000D01*
X127692993Y-111985925D01*
X127750000Y-111953012D01*
X127750000Y-112870000D01*
X128397834Y-112870000D01*
X128457372Y-112863598D01*
X128457373Y-112863598D01*
X128592091Y-112813351D01*
X128707188Y-112727188D01*
X128793351Y-112612091D01*
X128843598Y-112477373D01*
X128843598Y-112477372D01*
X128850000Y-112417834D01*
X128850000Y-111770000D01*
X127933012Y-111770000D01*
X127965925Y-111712993D01*
X128000000Y-111585826D01*
X128000000Y-111454174D01*
X127965925Y-111327007D01*
X127933012Y-111270000D01*
X128850000Y-111270000D01*
X128850000Y-110622165D01*
X128843598Y-110562627D01*
X128843598Y-110562626D01*
X128793351Y-110427908D01*
X128707188Y-110312811D01*
X128592091Y-110226648D01*
X128457373Y-110176401D01*
X128397834Y-110170000D01*
X127750000Y-110170000D01*
X127750000Y-111086988D01*
X127692993Y-111054075D01*
X127565826Y-111020000D01*
X127434174Y-111020000D01*
X127307007Y-111054075D01*
X127250000Y-111086988D01*
X127250000Y-110170000D01*
X126602166Y-110170000D01*
X126542627Y-110176401D01*
X126542626Y-110176401D01*
X126407908Y-110226648D01*
X126292811Y-110312811D01*
X126206648Y-110427908D01*
X126156401Y-110562626D01*
X126156401Y-110562627D01*
X126150000Y-110622165D01*
X123497516Y-110622165D01*
X123497516Y-109278482D01*
X140473600Y-109278482D01*
X140473600Y-110541517D01*
X140488453Y-110635303D01*
X140546045Y-110748335D01*
X140546050Y-110748342D01*
X140635757Y-110838049D01*
X140635764Y-110838054D01*
X140748791Y-110895644D01*
X140748792Y-110895644D01*
X140748796Y-110895646D01*
X140842581Y-110910500D01*
X142105618Y-110910499D01*
X142199404Y-110895646D01*
X142260487Y-110864522D01*
X142312435Y-110838054D01*
X142312437Y-110838052D01*
X142312442Y-110838050D01*
X142402150Y-110748342D01*
X142433335Y-110687139D01*
X142459744Y-110635309D01*
X142459744Y-110635307D01*
X142459746Y-110635304D01*
X142474600Y-110541519D01*
X142474599Y-109811455D01*
X143013600Y-109811455D01*
X143013600Y-110008544D01*
X143052047Y-110201827D01*
X143052049Y-110201836D01*
X143094588Y-110304534D01*
X143127468Y-110383914D01*
X143156864Y-110427908D01*
X143232775Y-110541518D01*
X143236961Y-110547782D01*
X143376318Y-110687139D01*
X143540186Y-110796632D01*
X143722265Y-110872051D01*
X143915559Y-110910500D01*
X144112641Y-110910500D01*
X144305935Y-110872051D01*
X144488014Y-110796632D01*
X144651882Y-110687139D01*
X144791239Y-110547782D01*
X144900732Y-110383914D01*
X144976151Y-110201835D01*
X145014600Y-110008541D01*
X145014600Y-109811459D01*
X145014599Y-109811455D01*
X145553600Y-109811455D01*
X145553600Y-110008544D01*
X145592047Y-110201827D01*
X145592049Y-110201836D01*
X145634588Y-110304534D01*
X145667468Y-110383914D01*
X145696864Y-110427908D01*
X145772775Y-110541518D01*
X145776961Y-110547782D01*
X145916318Y-110687139D01*
X146080186Y-110796632D01*
X146262265Y-110872051D01*
X146455559Y-110910500D01*
X146652641Y-110910500D01*
X146845935Y-110872051D01*
X147028014Y-110796632D01*
X147191882Y-110687139D01*
X147331239Y-110547782D01*
X147440732Y-110383914D01*
X147516151Y-110201835D01*
X147554600Y-110008541D01*
X147554600Y-109980252D01*
X154299500Y-109980252D01*
X154299500Y-111019748D01*
X154311133Y-111078231D01*
X154328882Y-111104795D01*
X154355447Y-111144552D01*
X154399762Y-111174162D01*
X154421769Y-111188867D01*
X154472577Y-111198973D01*
X154503758Y-111219808D01*
X154511075Y-111256590D01*
X154497665Y-111281679D01*
X154455882Y-111323462D01*
X154379223Y-111438192D01*
X154326420Y-111565670D01*
X154326417Y-111565681D01*
X154299500Y-111701001D01*
X154299500Y-111838998D01*
X154326417Y-111974318D01*
X154326420Y-111974329D01*
X154339698Y-112006384D01*
X154379225Y-112101811D01*
X154410137Y-112148074D01*
X154455883Y-112216539D01*
X154553460Y-112314116D01*
X154599102Y-112344613D01*
X154668189Y-112390775D01*
X154720877Y-112412599D01*
X154736774Y-112423221D01*
X154999999Y-112686446D01*
X155263224Y-112423221D01*
X155279117Y-112412601D01*
X155331811Y-112390775D01*
X155446542Y-112314114D01*
X155544114Y-112216542D01*
X155620775Y-112101811D01*
X155673580Y-111974328D01*
X155700500Y-111838993D01*
X155700500Y-111701007D01*
X155673580Y-111565672D01*
X155620775Y-111438189D01*
X155569663Y-111361695D01*
X155544116Y-111323460D01*
X155502335Y-111281679D01*
X155487983Y-111247031D01*
X155502335Y-111212383D01*
X155527420Y-111198973D01*
X155578231Y-111188867D01*
X155644552Y-111144552D01*
X155688867Y-111078231D01*
X155700500Y-111019748D01*
X155700500Y-109980252D01*
X155688867Y-109921769D01*
X155672749Y-109897648D01*
X157549500Y-109897648D01*
X157549500Y-110102351D01*
X157581522Y-110304531D01*
X157581523Y-110304534D01*
X157644779Y-110499217D01*
X157737714Y-110681612D01*
X157737716Y-110681615D01*
X157786191Y-110748335D01*
X157851375Y-110838054D01*
X157858035Y-110847220D01*
X157858039Y-110847225D01*
X158002775Y-110991961D01*
X158002779Y-110991964D01*
X158002781Y-110991966D01*
X158102733Y-111064585D01*
X158121515Y-111078231D01*
X158168390Y-111112287D01*
X158350781Y-111205220D01*
X158395679Y-111219808D01*
X158441407Y-111234666D01*
X158469924Y-111259022D01*
X158472867Y-111296410D01*
X158453488Y-111322010D01*
X158394094Y-111361695D01*
X158261697Y-111494092D01*
X158157675Y-111649774D01*
X158086029Y-111822741D01*
X158086026Y-111822751D01*
X158067680Y-111914986D01*
X158049500Y-112006384D01*
X158049500Y-112193616D01*
X158073468Y-112314114D01*
X158086026Y-112377248D01*
X158086029Y-112377258D01*
X158157675Y-112550225D01*
X158157676Y-112550227D01*
X158157678Y-112550231D01*
X158261698Y-112705908D01*
X158394092Y-112838302D01*
X158549769Y-112942322D01*
X158549774Y-112942324D01*
X158722741Y-113013970D01*
X158722743Y-113013970D01*
X158722749Y-113013973D01*
X158906384Y-113050500D01*
X158906387Y-113050500D01*
X160093613Y-113050500D01*
X160093616Y-113050500D01*
X160277251Y-113013973D01*
X160450231Y-112942322D01*
X160605908Y-112838302D01*
X160738302Y-112705908D01*
X160842322Y-112550231D01*
X160913973Y-112377251D01*
X160950500Y-112193616D01*
X160950500Y-112006384D01*
X160913973Y-111822749D01*
X160842322Y-111649769D01*
X160738302Y-111494092D01*
X160605908Y-111361698D01*
X160546509Y-111322009D01*
X160525675Y-111290828D01*
X160532991Y-111254045D01*
X160558592Y-111234666D01*
X160649219Y-111205220D01*
X160831610Y-111112287D01*
X160997219Y-110991966D01*
X160997222Y-110991962D01*
X160997225Y-110991961D01*
X161141961Y-110847225D01*
X161141962Y-110847222D01*
X161141966Y-110847219D01*
X161262287Y-110681610D01*
X161355220Y-110499219D01*
X161418477Y-110304534D01*
X161450500Y-110102352D01*
X161450500Y-109897648D01*
X161418477Y-109695466D01*
X161355220Y-109500781D01*
X161262287Y-109318390D01*
X161233292Y-109278482D01*
X161165153Y-109184696D01*
X161141966Y-109152781D01*
X161141964Y-109152779D01*
X161141961Y-109152775D01*
X160997225Y-109008039D01*
X160997220Y-109008035D01*
X160831615Y-108887716D01*
X160831612Y-108887714D01*
X160649217Y-108794779D01*
X160454534Y-108731523D01*
X160454531Y-108731522D01*
X160299220Y-108706923D01*
X160252352Y-108699500D01*
X158747648Y-108699500D01*
X158709599Y-108705526D01*
X158545468Y-108731522D01*
X158545465Y-108731523D01*
X158350782Y-108794779D01*
X158168387Y-108887714D01*
X158168384Y-108887716D01*
X158002779Y-109008035D01*
X157858035Y-109152779D01*
X157737716Y-109318384D01*
X157737714Y-109318387D01*
X157644779Y-109500782D01*
X157581523Y-109695465D01*
X157581522Y-109695468D01*
X157549500Y-109897648D01*
X155672749Y-109897648D01*
X155662301Y-109882012D01*
X155644552Y-109855447D01*
X155604795Y-109828882D01*
X155578231Y-109811133D01*
X155519748Y-109799500D01*
X154480252Y-109799500D01*
X154421769Y-109811133D01*
X154355447Y-109855447D01*
X154327250Y-109897648D01*
X154311133Y-109921769D01*
X154299500Y-109980252D01*
X147554600Y-109980252D01*
X147554600Y-109811459D01*
X147516151Y-109618165D01*
X147440732Y-109436086D01*
X147331239Y-109272218D01*
X147191882Y-109132861D01*
X147028014Y-109023368D01*
X147028011Y-109023366D01*
X147028010Y-109023366D01*
X146845936Y-108947949D01*
X146845927Y-108947947D01*
X146652644Y-108909500D01*
X146652641Y-108909500D01*
X146455559Y-108909500D01*
X146455555Y-108909500D01*
X146262272Y-108947947D01*
X146262263Y-108947949D01*
X146080189Y-109023366D01*
X145916318Y-109132860D01*
X145776960Y-109272218D01*
X145667466Y-109436089D01*
X145592049Y-109618163D01*
X145592047Y-109618172D01*
X145553600Y-109811455D01*
X145014599Y-109811455D01*
X144976151Y-109618165D01*
X144900732Y-109436086D01*
X144791239Y-109272218D01*
X144651882Y-109132861D01*
X144488014Y-109023368D01*
X144488011Y-109023366D01*
X144488010Y-109023366D01*
X144305936Y-108947949D01*
X144305927Y-108947947D01*
X144112644Y-108909500D01*
X144112641Y-108909500D01*
X143915559Y-108909500D01*
X143915555Y-108909500D01*
X143722272Y-108947947D01*
X143722263Y-108947949D01*
X143540189Y-109023366D01*
X143376318Y-109132860D01*
X143236960Y-109272218D01*
X143127466Y-109436089D01*
X143052049Y-109618163D01*
X143052047Y-109618172D01*
X143013600Y-109811455D01*
X142474599Y-109811455D01*
X142474599Y-109278482D01*
X142459746Y-109184696D01*
X142459743Y-109184690D01*
X142402154Y-109071664D01*
X142402149Y-109071657D01*
X142312442Y-108981950D01*
X142312435Y-108981945D01*
X142199408Y-108924355D01*
X142199405Y-108924354D01*
X142199404Y-108924354D01*
X142105619Y-108909500D01*
X142105617Y-108909500D01*
X140842582Y-108909500D01*
X140748796Y-108924353D01*
X140635764Y-108981945D01*
X140635757Y-108981950D01*
X140546050Y-109071657D01*
X140546045Y-109071664D01*
X140488455Y-109184690D01*
X140488455Y-109184692D01*
X140473600Y-109278482D01*
X123497516Y-109278482D01*
X123497516Y-107076535D01*
X126449500Y-107076535D01*
X126449500Y-107283465D01*
X126489870Y-107486420D01*
X126569059Y-107677598D01*
X126684023Y-107849655D01*
X126830345Y-107995977D01*
X127002402Y-108110941D01*
X127193580Y-108190130D01*
X127396535Y-108230500D01*
X127396538Y-108230500D01*
X127603462Y-108230500D01*
X127603465Y-108230500D01*
X127806420Y-108190130D01*
X127997598Y-108110941D01*
X128169655Y-107995977D01*
X128315977Y-107849655D01*
X128430941Y-107677598D01*
X128510130Y-107486420D01*
X128550500Y-107283465D01*
X128550500Y-107076535D01*
X128510130Y-106873580D01*
X128430941Y-106682402D01*
X128315977Y-106510345D01*
X128169655Y-106364023D01*
X127997598Y-106249059D01*
X127997596Y-106249058D01*
X127806423Y-106169871D01*
X127806417Y-106169869D01*
X127724572Y-106153589D01*
X127603465Y-106129500D01*
X127396535Y-106129500D01*
X127295520Y-106149592D01*
X127193582Y-106169869D01*
X127193576Y-106169871D01*
X127002403Y-106249058D01*
X126830345Y-106364022D01*
X126684022Y-106510345D01*
X126569058Y-106682403D01*
X126489871Y-106873576D01*
X126489869Y-106873582D01*
X126474114Y-106952791D01*
X126449500Y-107076535D01*
X123497516Y-107076535D01*
X123497516Y-104536535D01*
X126449500Y-104536535D01*
X126449500Y-104743465D01*
X126476290Y-104878150D01*
X126489869Y-104946417D01*
X126489871Y-104946423D01*
X126531618Y-105047208D01*
X126569059Y-105137598D01*
X126684023Y-105309655D01*
X126830345Y-105455977D01*
X127002402Y-105570941D01*
X127193580Y-105650130D01*
X127396535Y-105690500D01*
X127396538Y-105690500D01*
X127603462Y-105690500D01*
X127603465Y-105690500D01*
X127806420Y-105650130D01*
X127997598Y-105570941D01*
X128169655Y-105455977D01*
X128229908Y-105395724D01*
X154999500Y-105395724D01*
X154999500Y-106604275D01*
X155002353Y-106634698D01*
X155002353Y-106634699D01*
X155047204Y-106762876D01*
X155047208Y-106762885D01*
X155127849Y-106872150D01*
X155237114Y-106952791D01*
X155237117Y-106952792D01*
X155237118Y-106952793D01*
X155237120Y-106952793D01*
X155237123Y-106952795D01*
X155365301Y-106997646D01*
X155395734Y-107000500D01*
X155395744Y-107000500D01*
X156604256Y-107000500D01*
X156604266Y-107000500D01*
X156634699Y-106997646D01*
X156762882Y-106952793D01*
X156872150Y-106872150D01*
X156952793Y-106762882D01*
X156997646Y-106634699D01*
X157000500Y-106604266D01*
X157000500Y-105395734D01*
X156997646Y-105365301D01*
X156978174Y-105309654D01*
X156952795Y-105237123D01*
X156952791Y-105237114D01*
X156872150Y-105127849D01*
X156762885Y-105047208D01*
X156762876Y-105047204D01*
X156634698Y-105002353D01*
X156604275Y-104999500D01*
X156604266Y-104999500D01*
X155395734Y-104999500D01*
X155395724Y-104999500D01*
X155365301Y-105002353D01*
X155365300Y-105002353D01*
X155237123Y-105047204D01*
X155237114Y-105047208D01*
X155127849Y-105127849D01*
X155047208Y-105237114D01*
X155047204Y-105237123D01*
X155002353Y-105365300D01*
X155002353Y-105365301D01*
X154999500Y-105395724D01*
X128229908Y-105395724D01*
X128315977Y-105309655D01*
X128430941Y-105137598D01*
X128510130Y-104946420D01*
X128550500Y-104743465D01*
X128550500Y-104536535D01*
X128510130Y-104333580D01*
X128430941Y-104142402D01*
X128315977Y-103970345D01*
X128169655Y-103824023D01*
X128140312Y-103804417D01*
X128052295Y-103745606D01*
X127997598Y-103709059D01*
X127865626Y-103654394D01*
X127806423Y-103629871D01*
X127806417Y-103629869D01*
X127724572Y-103613589D01*
X127603465Y-103589500D01*
X127396535Y-103589500D01*
X127295520Y-103609592D01*
X127193582Y-103629869D01*
X127193576Y-103629871D01*
X127002403Y-103709058D01*
X126830345Y-103824022D01*
X126684022Y-103970345D01*
X126569058Y-104142403D01*
X126489871Y-104333576D01*
X126489869Y-104333582D01*
X126469592Y-104435520D01*
X126449500Y-104536535D01*
X123497516Y-104536535D01*
X123497516Y-103397688D01*
X154700000Y-103397688D01*
X154700000Y-103602311D01*
X154732009Y-103804414D01*
X154732010Y-103804417D01*
X154795243Y-103999028D01*
X154888138Y-104181346D01*
X154888139Y-104181348D01*
X154920524Y-104225921D01*
X155600000Y-103546445D01*
X155600000Y-103552661D01*
X155627259Y-103654394D01*
X155679920Y-103745606D01*
X155754394Y-103820080D01*
X155845606Y-103872741D01*
X155947339Y-103900000D01*
X155953553Y-103900000D01*
X155274076Y-104579475D01*
X155318653Y-104611861D01*
X155500971Y-104704756D01*
X155695582Y-104767989D01*
X155695585Y-104767990D01*
X155897689Y-104800000D01*
X156102311Y-104800000D01*
X156304414Y-104767990D01*
X156304417Y-104767989D01*
X156499028Y-104704756D01*
X156681343Y-104611863D01*
X156725921Y-104579474D01*
X156046447Y-103900000D01*
X156052661Y-103900000D01*
X156154394Y-103872741D01*
X156245606Y-103820080D01*
X156320080Y-103745606D01*
X156372741Y-103654394D01*
X156400000Y-103552661D01*
X156400000Y-103546447D01*
X157079474Y-104225921D01*
X157111863Y-104181343D01*
X157204756Y-103999028D01*
X157267989Y-103804417D01*
X157267990Y-103804414D01*
X157300000Y-103602311D01*
X157300000Y-103397688D01*
X157267990Y-103195585D01*
X157267989Y-103195582D01*
X157204756Y-103000971D01*
X157111861Y-102818653D01*
X157079475Y-102774076D01*
X156400000Y-103453551D01*
X156400000Y-103447339D01*
X156372741Y-103345606D01*
X156320080Y-103254394D01*
X156245606Y-103179920D01*
X156154394Y-103127259D01*
X156052661Y-103100000D01*
X156046445Y-103100000D01*
X156725921Y-102420524D01*
X156681348Y-102388139D01*
X156681346Y-102388138D01*
X156499028Y-102295243D01*
X156304417Y-102232010D01*
X156304414Y-102232009D01*
X156102311Y-102200000D01*
X155897689Y-102200000D01*
X155695585Y-102232009D01*
X155695582Y-102232010D01*
X155500971Y-102295243D01*
X155318653Y-102388138D01*
X155318644Y-102388143D01*
X155274077Y-102420523D01*
X155274077Y-102420524D01*
X155953553Y-103100000D01*
X155947339Y-103100000D01*
X155845606Y-103127259D01*
X155754394Y-103179920D01*
X155679920Y-103254394D01*
X155627259Y-103345606D01*
X155600000Y-103447339D01*
X155600000Y-103453553D01*
X154920524Y-102774077D01*
X154920523Y-102774077D01*
X154888143Y-102818644D01*
X154888138Y-102818653D01*
X154795243Y-103000971D01*
X154732010Y-103195582D01*
X154732009Y-103195585D01*
X154700000Y-103397688D01*
X123497516Y-103397688D01*
X123497516Y-101996535D01*
X126449500Y-101996535D01*
X126449500Y-102203465D01*
X126467756Y-102295243D01*
X126489869Y-102406417D01*
X126489871Y-102406423D01*
X126495712Y-102420524D01*
X126569059Y-102597598D01*
X126684023Y-102769655D01*
X126830345Y-102915977D01*
X127002402Y-103030941D01*
X127193580Y-103110130D01*
X127396535Y-103150500D01*
X127396538Y-103150500D01*
X127603462Y-103150500D01*
X127603465Y-103150500D01*
X127806420Y-103110130D01*
X127997598Y-103030941D01*
X128169655Y-102915977D01*
X128315977Y-102769655D01*
X128430941Y-102597598D01*
X128504288Y-102420524D01*
X128504320Y-102420447D01*
X128504320Y-102420446D01*
X128510127Y-102406427D01*
X128510126Y-102406427D01*
X128510130Y-102406420D01*
X128550500Y-102203465D01*
X128550500Y-101996535D01*
X128510130Y-101793580D01*
X128430941Y-101602402D01*
X128315977Y-101430345D01*
X128169655Y-101284023D01*
X127997598Y-101169059D01*
X127997596Y-101169058D01*
X127806423Y-101089871D01*
X127806417Y-101089869D01*
X127724572Y-101073589D01*
X127603465Y-101049500D01*
X127396535Y-101049500D01*
X127295520Y-101069592D01*
X127193582Y-101089869D01*
X127193576Y-101089871D01*
X127002403Y-101169058D01*
X126830345Y-101284022D01*
X126684022Y-101430345D01*
X126569058Y-101602403D01*
X126489871Y-101793576D01*
X126489869Y-101793582D01*
X126469592Y-101895520D01*
X126449500Y-101996535D01*
X123497516Y-101996535D01*
X123497516Y-99456535D01*
X126449500Y-99456535D01*
X126449500Y-99663465D01*
X126469274Y-99762876D01*
X126489869Y-99866417D01*
X126489871Y-99866423D01*
X126545408Y-100000500D01*
X126569059Y-100057598D01*
X126684023Y-100229655D01*
X126830345Y-100375977D01*
X127002402Y-100490941D01*
X127193580Y-100570130D01*
X127396535Y-100610500D01*
X127396538Y-100610500D01*
X127603462Y-100610500D01*
X127603465Y-100610500D01*
X127806420Y-100570130D01*
X127997598Y-100490941D01*
X128169655Y-100375977D01*
X128315977Y-100229655D01*
X128430941Y-100057598D01*
X128510130Y-99866420D01*
X128550500Y-99663465D01*
X128550500Y-99456535D01*
X128510130Y-99253580D01*
X128430941Y-99062402D01*
X128315977Y-98890345D01*
X128169655Y-98744023D01*
X127997598Y-98629059D01*
X127997596Y-98629058D01*
X127806423Y-98549871D01*
X127806417Y-98549869D01*
X127724572Y-98533589D01*
X127603465Y-98509500D01*
X127396535Y-98509500D01*
X127295520Y-98529592D01*
X127193582Y-98549869D01*
X127193576Y-98549871D01*
X127002403Y-98629058D01*
X126830345Y-98744022D01*
X126684022Y-98890345D01*
X126569058Y-99062403D01*
X126489871Y-99253576D01*
X126489869Y-99253582D01*
X126469592Y-99355520D01*
X126449500Y-99456535D01*
X123497516Y-99456535D01*
X123497516Y-96916535D01*
X126449500Y-96916535D01*
X126449500Y-97123465D01*
X126473795Y-97245606D01*
X126485492Y-97304414D01*
X126489870Y-97326420D01*
X126569059Y-97517598D01*
X126684023Y-97689655D01*
X126830345Y-97835977D01*
X127002402Y-97950941D01*
X127193580Y-98030130D01*
X127396535Y-98070500D01*
X127396538Y-98070500D01*
X127603462Y-98070500D01*
X127603465Y-98070500D01*
X127806420Y-98030130D01*
X127997598Y-97950941D01*
X128169655Y-97835977D01*
X128315977Y-97689655D01*
X128430941Y-97517598D01*
X128510130Y-97326420D01*
X128550500Y-97123465D01*
X128550500Y-96916535D01*
X128546751Y-96897688D01*
X154700000Y-96897688D01*
X154700000Y-97102311D01*
X154732009Y-97304414D01*
X154732010Y-97304417D01*
X154795243Y-97499028D01*
X154888138Y-97681346D01*
X154888139Y-97681348D01*
X154920524Y-97725921D01*
X155600000Y-97046445D01*
X155600000Y-97052661D01*
X155627259Y-97154394D01*
X155679920Y-97245606D01*
X155754394Y-97320080D01*
X155845606Y-97372741D01*
X155947339Y-97400000D01*
X155953553Y-97400000D01*
X155351516Y-98002035D01*
X155333052Y-98013637D01*
X155237115Y-98047208D01*
X155127849Y-98127849D01*
X155047208Y-98237114D01*
X155047204Y-98237123D01*
X155002353Y-98365300D01*
X155002353Y-98365301D01*
X154999500Y-98395724D01*
X154999500Y-99604275D01*
X155002353Y-99634698D01*
X155002353Y-99634699D01*
X155047204Y-99762876D01*
X155047208Y-99762885D01*
X155127849Y-99872150D01*
X155237114Y-99952791D01*
X155237117Y-99952792D01*
X155237118Y-99952793D01*
X155237120Y-99952793D01*
X155237123Y-99952795D01*
X155365301Y-99997646D01*
X155395734Y-100000500D01*
X155395744Y-100000500D01*
X156604256Y-100000500D01*
X156604266Y-100000500D01*
X156634699Y-99997646D01*
X156762882Y-99952793D01*
X156872150Y-99872150D01*
X156952793Y-99762882D01*
X156997646Y-99634699D01*
X157000500Y-99604266D01*
X157000500Y-98395734D01*
X156997646Y-98365301D01*
X156952793Y-98237118D01*
X156952792Y-98237117D01*
X156952791Y-98237114D01*
X156872150Y-98127849D01*
X156762884Y-98047208D01*
X156762882Y-98047207D01*
X156714073Y-98030128D01*
X156666946Y-98013637D01*
X156648482Y-98002035D01*
X156046447Y-97400000D01*
X156052661Y-97400000D01*
X156154394Y-97372741D01*
X156245606Y-97320080D01*
X156320080Y-97245606D01*
X156372741Y-97154394D01*
X156400000Y-97052661D01*
X156400000Y-97046447D01*
X157079474Y-97725921D01*
X157111863Y-97681343D01*
X157204756Y-97499028D01*
X157267989Y-97304417D01*
X157267990Y-97304414D01*
X157300000Y-97102311D01*
X157300000Y-96897688D01*
X157267990Y-96695585D01*
X157267989Y-96695582D01*
X157204756Y-96500971D01*
X157111861Y-96318653D01*
X157079475Y-96274076D01*
X156400000Y-96953551D01*
X156400000Y-96947339D01*
X156372741Y-96845606D01*
X156320080Y-96754394D01*
X156245606Y-96679920D01*
X156154394Y-96627259D01*
X156052661Y-96600000D01*
X156046445Y-96600000D01*
X156725921Y-95920524D01*
X156681348Y-95888139D01*
X156681346Y-95888138D01*
X156499028Y-95795243D01*
X156304417Y-95732010D01*
X156304414Y-95732009D01*
X156102311Y-95700000D01*
X155897689Y-95700000D01*
X155695585Y-95732009D01*
X155695582Y-95732010D01*
X155500971Y-95795243D01*
X155318653Y-95888138D01*
X155318644Y-95888143D01*
X155274077Y-95920523D01*
X155274077Y-95920524D01*
X155953553Y-96600000D01*
X155947339Y-96600000D01*
X155845606Y-96627259D01*
X155754394Y-96679920D01*
X155679920Y-96754394D01*
X155627259Y-96845606D01*
X155600000Y-96947339D01*
X155600000Y-96953553D01*
X154920524Y-96274077D01*
X154920523Y-96274077D01*
X154888143Y-96318644D01*
X154888138Y-96318653D01*
X154795243Y-96500971D01*
X154732010Y-96695582D01*
X154732009Y-96695585D01*
X154700000Y-96897688D01*
X128546751Y-96897688D01*
X128510130Y-96713580D01*
X128430941Y-96522402D01*
X128315977Y-96350345D01*
X128169655Y-96204023D01*
X127997598Y-96089059D01*
X127997596Y-96089058D01*
X127806423Y-96009871D01*
X127806417Y-96009869D01*
X127761191Y-96000873D01*
X127692736Y-95987257D01*
X127692735Y-95987256D01*
X127603470Y-95969500D01*
X127603465Y-95969500D01*
X127396535Y-95969500D01*
X127307269Y-95987256D01*
X127193582Y-96009869D01*
X127193576Y-96009871D01*
X127002403Y-96089058D01*
X126830345Y-96204022D01*
X126684022Y-96350345D01*
X126569058Y-96522403D01*
X126489871Y-96713576D01*
X126489869Y-96713582D01*
X126469592Y-96815520D01*
X126449500Y-96916535D01*
X123497516Y-96916535D01*
X123497516Y-94376535D01*
X126449500Y-94376535D01*
X126449500Y-94583465D01*
X126489870Y-94786420D01*
X126569059Y-94977598D01*
X126684023Y-95149655D01*
X126830345Y-95295977D01*
X127002402Y-95410941D01*
X127193580Y-95490130D01*
X127396535Y-95530500D01*
X127396538Y-95530500D01*
X127603462Y-95530500D01*
X127603465Y-95530500D01*
X127806420Y-95490130D01*
X127997598Y-95410941D01*
X128169655Y-95295977D01*
X128315977Y-95149655D01*
X128430941Y-94977598D01*
X128510130Y-94786420D01*
X128550500Y-94583465D01*
X128550500Y-94376535D01*
X128510130Y-94173580D01*
X128430941Y-93982402D01*
X128315977Y-93810345D01*
X128169655Y-93664023D01*
X127997598Y-93549059D01*
X127997596Y-93549058D01*
X127806423Y-93469871D01*
X127806417Y-93469869D01*
X127724572Y-93453589D01*
X127603465Y-93429500D01*
X127396535Y-93429500D01*
X127295520Y-93449592D01*
X127193582Y-93469869D01*
X127193576Y-93469871D01*
X127002403Y-93549058D01*
X126830345Y-93664022D01*
X126684022Y-93810345D01*
X126569058Y-93982403D01*
X126489871Y-94173576D01*
X126489869Y-94173582D01*
X126469592Y-94275520D01*
X126449500Y-94376535D01*
X123497516Y-94376535D01*
X123497516Y-91836535D01*
X126449500Y-91836535D01*
X126449500Y-92043465D01*
X126489870Y-92246420D01*
X126569059Y-92437598D01*
X126684023Y-92609655D01*
X126830345Y-92755977D01*
X127002402Y-92870941D01*
X127193580Y-92950130D01*
X127396535Y-92990500D01*
X127396538Y-92990500D01*
X127603462Y-92990500D01*
X127603465Y-92990500D01*
X127806420Y-92950130D01*
X127997598Y-92870941D01*
X128169655Y-92755977D01*
X128315977Y-92609655D01*
X128430941Y-92437598D01*
X128510130Y-92246420D01*
X128550500Y-92043465D01*
X128550500Y-91836535D01*
X128510130Y-91633580D01*
X128430941Y-91442402D01*
X128315977Y-91270345D01*
X128169655Y-91124023D01*
X127997598Y-91009059D01*
X127997596Y-91009058D01*
X127806423Y-90929871D01*
X127806417Y-90929869D01*
X127724572Y-90913589D01*
X127603465Y-90889500D01*
X127396535Y-90889500D01*
X127295520Y-90909592D01*
X127193582Y-90929869D01*
X127193576Y-90929871D01*
X127002403Y-91009058D01*
X126830345Y-91124022D01*
X126684022Y-91270345D01*
X126569058Y-91442403D01*
X126489871Y-91633576D01*
X126489869Y-91633582D01*
X126469592Y-91735520D01*
X126449500Y-91836535D01*
X123497516Y-91836535D01*
X123497516Y-88502165D01*
X126150000Y-88502165D01*
X126150000Y-89150000D01*
X127066988Y-89150000D01*
X127034075Y-89207007D01*
X127000000Y-89334174D01*
X127000000Y-89465826D01*
X127034075Y-89592993D01*
X127066988Y-89650000D01*
X126150000Y-89650000D01*
X126150000Y-90297834D01*
X126156401Y-90357372D01*
X126156401Y-90357373D01*
X126206648Y-90492091D01*
X126292811Y-90607188D01*
X126407908Y-90693351D01*
X126542626Y-90743598D01*
X126602166Y-90750000D01*
X127250000Y-90750000D01*
X127250000Y-89833012D01*
X127307007Y-89865925D01*
X127434174Y-89900000D01*
X127565826Y-89900000D01*
X127692993Y-89865925D01*
X127750000Y-89833012D01*
X127750000Y-90750000D01*
X128397834Y-90750000D01*
X128457372Y-90743598D01*
X128457373Y-90743598D01*
X128592091Y-90693351D01*
X128707188Y-90607188D01*
X128793351Y-90492091D01*
X128843598Y-90357373D01*
X128843598Y-90357372D01*
X128850000Y-90297834D01*
X128850000Y-89650000D01*
X127933012Y-89650000D01*
X127965925Y-89592993D01*
X128000000Y-89465826D01*
X128000000Y-89334174D01*
X127965925Y-89207007D01*
X127933012Y-89150000D01*
X128850000Y-89150000D01*
X128850000Y-88502165D01*
X128843598Y-88442627D01*
X128843598Y-88442626D01*
X128793351Y-88307908D01*
X128707188Y-88192811D01*
X128592091Y-88106648D01*
X128457373Y-88056401D01*
X128397834Y-88050000D01*
X127750000Y-88050000D01*
X127750000Y-88966988D01*
X127692993Y-88934075D01*
X127565826Y-88900000D01*
X127434174Y-88900000D01*
X127307007Y-88934075D01*
X127250000Y-88966988D01*
X127250000Y-88050000D01*
X126602166Y-88050000D01*
X126542627Y-88056401D01*
X126542626Y-88056401D01*
X126407908Y-88106648D01*
X126292811Y-88192811D01*
X126206648Y-88307908D01*
X126156401Y-88442626D01*
X126156401Y-88442627D01*
X126150000Y-88502165D01*
X123497516Y-88502165D01*
X123497516Y-82415724D01*
X124999500Y-82415724D01*
X124999500Y-83624275D01*
X125002353Y-83654698D01*
X125002353Y-83654699D01*
X125047204Y-83782876D01*
X125047208Y-83782885D01*
X125127849Y-83892150D01*
X125237114Y-83972791D01*
X125237117Y-83972792D01*
X125237118Y-83972793D01*
X125237120Y-83972793D01*
X125237123Y-83972795D01*
X125331427Y-84005793D01*
X125365301Y-84017646D01*
X125395734Y-84020500D01*
X125395744Y-84020500D01*
X126604256Y-84020500D01*
X126604266Y-84020500D01*
X126634699Y-84017646D01*
X126762882Y-83972793D01*
X126872150Y-83892150D01*
X126952793Y-83782882D01*
X126997646Y-83654699D01*
X127000500Y-83624266D01*
X127000500Y-83147486D01*
X137289500Y-83147486D01*
X137289500Y-83332513D01*
X137318444Y-83515261D01*
X137318445Y-83515264D01*
X137363749Y-83654698D01*
X137375621Y-83691235D01*
X137459622Y-83856096D01*
X137544409Y-83972795D01*
X137568380Y-84005788D01*
X137568384Y-84005793D01*
X137699207Y-84136616D01*
X137699211Y-84136619D01*
X137699213Y-84136621D01*
X137848904Y-84245378D01*
X138013765Y-84329379D01*
X138189736Y-84386555D01*
X138372486Y-84415500D01*
X138372487Y-84415500D01*
X138557513Y-84415500D01*
X138557514Y-84415500D01*
X138740264Y-84386555D01*
X138916235Y-84329379D01*
X139081096Y-84245378D01*
X139230787Y-84136621D01*
X139230790Y-84136617D01*
X139230793Y-84136616D01*
X139361616Y-84005793D01*
X139361617Y-84005790D01*
X139361621Y-84005787D01*
X139470378Y-83856096D01*
X139554379Y-83691235D01*
X139611555Y-83515264D01*
X139640500Y-83332514D01*
X139640500Y-83147486D01*
X142139500Y-83147486D01*
X142139500Y-83332513D01*
X142168444Y-83515261D01*
X142168445Y-83515264D01*
X142213749Y-83654698D01*
X142225621Y-83691235D01*
X142309622Y-83856096D01*
X142394409Y-83972795D01*
X142418380Y-84005788D01*
X142418384Y-84005793D01*
X142549207Y-84136616D01*
X142549211Y-84136619D01*
X142549213Y-84136621D01*
X142698904Y-84245378D01*
X142863765Y-84329379D01*
X143039736Y-84386555D01*
X143222486Y-84415500D01*
X143222487Y-84415500D01*
X143407513Y-84415500D01*
X143407514Y-84415500D01*
X143590264Y-84386555D01*
X143766235Y-84329379D01*
X143931096Y-84245378D01*
X144080787Y-84136621D01*
X144080790Y-84136617D01*
X144080793Y-84136616D01*
X144211616Y-84005793D01*
X144211617Y-84005790D01*
X144211621Y-84005787D01*
X144320378Y-83856096D01*
X144404379Y-83691235D01*
X144461555Y-83515264D01*
X144490500Y-83332514D01*
X144490500Y-83147486D01*
X144461555Y-82964736D01*
X144404379Y-82788765D01*
X144320378Y-82623904D01*
X144211621Y-82474213D01*
X144211619Y-82474211D01*
X144211616Y-82474207D01*
X144080793Y-82343384D01*
X144080788Y-82343380D01*
X144080787Y-82343379D01*
X143931096Y-82234622D01*
X143766235Y-82150621D01*
X143766234Y-82150620D01*
X143766233Y-82150620D01*
X143590264Y-82093445D01*
X143590261Y-82093444D01*
X143424586Y-82067204D01*
X143407514Y-82064500D01*
X143222486Y-82064500D01*
X143205414Y-82067204D01*
X143039738Y-82093444D01*
X143039735Y-82093445D01*
X142863766Y-82150620D01*
X142698904Y-82234622D01*
X142549211Y-82343380D01*
X142418380Y-82474211D01*
X142309622Y-82623904D01*
X142225620Y-82788766D01*
X142168445Y-82964735D01*
X142168444Y-82964738D01*
X142139500Y-83147486D01*
X139640500Y-83147486D01*
X139611555Y-82964736D01*
X139554379Y-82788765D01*
X139470378Y-82623904D01*
X139361621Y-82474213D01*
X139361619Y-82474211D01*
X139361616Y-82474207D01*
X139230793Y-82343384D01*
X139230788Y-82343380D01*
X139230787Y-82343379D01*
X139081096Y-82234622D01*
X138916235Y-82150621D01*
X138916234Y-82150620D01*
X138916233Y-82150620D01*
X138740264Y-82093445D01*
X138740261Y-82093444D01*
X138574586Y-82067204D01*
X138557514Y-82064500D01*
X138372486Y-82064500D01*
X138355414Y-82067204D01*
X138189738Y-82093444D01*
X138189735Y-82093445D01*
X138013766Y-82150620D01*
X137848904Y-82234622D01*
X137699211Y-82343380D01*
X137568380Y-82474211D01*
X137459622Y-82623904D01*
X137375620Y-82788766D01*
X137318445Y-82964735D01*
X137318444Y-82964738D01*
X137289500Y-83147486D01*
X127000500Y-83147486D01*
X127000500Y-82415734D01*
X126997646Y-82385301D01*
X126982977Y-82343380D01*
X126952795Y-82257123D01*
X126952791Y-82257114D01*
X126872150Y-82147849D01*
X126762885Y-82067208D01*
X126762876Y-82067204D01*
X126634698Y-82022353D01*
X126604275Y-82019500D01*
X126604266Y-82019500D01*
X125395734Y-82019500D01*
X125395724Y-82019500D01*
X125365301Y-82022353D01*
X125365300Y-82022353D01*
X125237123Y-82067204D01*
X125237114Y-82067208D01*
X125127849Y-82147849D01*
X125047208Y-82257114D01*
X125047204Y-82257123D01*
X125002353Y-82385300D01*
X125002353Y-82385301D01*
X124999500Y-82415724D01*
X123497516Y-82415724D01*
X123497516Y-80417688D01*
X124700000Y-80417688D01*
X124700000Y-80622311D01*
X124732009Y-80824414D01*
X124732010Y-80824417D01*
X124795243Y-81019028D01*
X124888138Y-81201346D01*
X124888139Y-81201348D01*
X124920524Y-81245921D01*
X125600000Y-80566445D01*
X125600000Y-80572661D01*
X125627259Y-80674394D01*
X125679920Y-80765606D01*
X125754394Y-80840080D01*
X125845606Y-80892741D01*
X125947339Y-80920000D01*
X125953553Y-80920000D01*
X125274076Y-81599475D01*
X125318653Y-81631861D01*
X125500971Y-81724756D01*
X125695582Y-81787989D01*
X125695585Y-81787990D01*
X125897689Y-81820000D01*
X126102311Y-81820000D01*
X126304414Y-81787990D01*
X126304417Y-81787989D01*
X126499028Y-81724756D01*
X126681343Y-81631863D01*
X126725921Y-81599474D01*
X126046447Y-80920000D01*
X126052661Y-80920000D01*
X126154394Y-80892741D01*
X126245606Y-80840080D01*
X126320080Y-80765606D01*
X126372741Y-80674394D01*
X126400000Y-80572661D01*
X126400000Y-80566447D01*
X127079474Y-81245921D01*
X127111863Y-81201343D01*
X127204756Y-81019028D01*
X127267989Y-80824417D01*
X127267990Y-80824414D01*
X127300000Y-80622311D01*
X127300000Y-80417688D01*
X127267990Y-80215585D01*
X127267989Y-80215582D01*
X127204756Y-80020971D01*
X127111861Y-79838653D01*
X127079475Y-79794076D01*
X126400000Y-80473551D01*
X126400000Y-80467339D01*
X126372741Y-80365606D01*
X126320080Y-80274394D01*
X126245606Y-80199920D01*
X126154394Y-80147259D01*
X126052661Y-80120000D01*
X126046445Y-80120000D01*
X126725921Y-79440524D01*
X126681348Y-79408139D01*
X126681346Y-79408138D01*
X126499028Y-79315243D01*
X126304417Y-79252010D01*
X126304414Y-79252009D01*
X126102311Y-79220000D01*
X125897689Y-79220000D01*
X125695585Y-79252009D01*
X125695582Y-79252010D01*
X125500971Y-79315243D01*
X125318653Y-79408138D01*
X125318644Y-79408143D01*
X125274077Y-79440523D01*
X125274077Y-79440524D01*
X125953553Y-80120000D01*
X125947339Y-80120000D01*
X125845606Y-80147259D01*
X125754394Y-80199920D01*
X125679920Y-80274394D01*
X125627259Y-80365606D01*
X125600000Y-80467339D01*
X125600000Y-80473553D01*
X124920524Y-79794077D01*
X124920523Y-79794077D01*
X124888143Y-79838644D01*
X124888138Y-79838653D01*
X124795243Y-80020971D01*
X124732010Y-80215582D01*
X124732009Y-80215585D01*
X124700000Y-80417688D01*
X123497516Y-80417688D01*
X123497516Y-79069500D01*
X123511868Y-79034852D01*
X123546516Y-79020500D01*
X137353792Y-79020500D01*
X137388440Y-79034852D01*
G37*
%TD.AperFunction*%
%TD*%
M02*
