%TF.GenerationSoftware,KiCad,Pcbnew,10.0.1*%
%TF.CreationDate,2026-05-03T11:39:12-04:00*%
%TF.ProjectId,bionic_butterfly,62696f6e-6963-45f6-9275-74746572666c,rev?*%
%TF.SameCoordinates,Original*%
%TF.FileFunction,Soldermask,Top*%
%TF.FilePolarity,Negative*%
%FSLAX46Y46*%
G04 Gerber Fmt 4.6, Leading zero omitted, Abs format (unit mm)*
G04 Created by KiCad (PCBNEW 10.0.1) date 2026-05-03 11:39:12*
%MOMM*%
%LPD*%
G01*
G04 APERTURE LIST*
G04 Aperture macros list*
%AMRoundRect*
0 Rectangle with rounded corners*
0 $1 Rounding radius*
0 $2 $3 $4 $5 $6 $7 $8 $9 X,Y pos of 4 corners*
0 Add a 4 corners polygon primitive as box body*
4,1,4,$2,$3,$4,$5,$6,$7,$8,$9,$2,$3,0*
0 Add four circle primitives for the rounded corners*
1,1,$1+$1,$2,$3*
1,1,$1+$1,$4,$5*
1,1,$1+$1,$6,$7*
1,1,$1+$1,$8,$9*
0 Add four rect primitives between the rounded corners*
20,1,$1+$1,$2,$3,$4,$5,0*
20,1,$1+$1,$4,$5,$6,$7,0*
20,1,$1+$1,$6,$7,$8,$9,0*
20,1,$1+$1,$8,$9,$2,$3,0*%
%AMFreePoly0*
4,1,37,0.800000,0.796148,0.878414,0.796148,1.032228,0.765552,1.177117,0.705537,1.307515,0.618408,1.418408,0.507515,1.505537,0.377117,1.565552,0.232228,1.596148,0.078414,1.596148,-0.078414,1.565552,-0.232228,1.505537,-0.377117,1.418408,-0.507515,1.307515,-0.618408,1.177117,-0.705537,1.032228,-0.765552,0.878414,-0.796148,0.800000,-0.796148,0.800000,-0.800000,-1.400000,-0.800000,
-1.403843,-0.796157,-1.439018,-0.796157,-1.511114,-0.766294,-1.566294,-0.711114,-1.596157,-0.639018,-1.596157,-0.603843,-1.600000,-0.600000,-1.600000,0.600000,-1.596157,0.603843,-1.596157,0.639018,-1.566294,0.711114,-1.511114,0.766294,-1.439018,0.796157,-1.403843,0.796157,-1.400000,0.800000,0.800000,0.800000,0.800000,0.796148,0.800000,0.796148,$1*%
%AMFreePoly1*
4,1,37,1.403843,0.796157,1.439018,0.796157,1.511114,0.766294,1.566294,0.711114,1.596157,0.639018,1.596157,0.603843,1.600000,0.600000,1.600000,-0.600000,1.596157,-0.603843,1.596157,-0.639018,1.566294,-0.711114,1.511114,-0.766294,1.439018,-0.796157,1.403843,-0.796157,1.400000,-0.800000,-0.800000,-0.800000,-0.800000,-0.796148,-0.878414,-0.796148,-1.032228,-0.765552,-1.177117,-0.705537,
-1.307515,-0.618408,-1.418408,-0.507515,-1.505537,-0.377117,-1.565552,-0.232228,-1.596148,-0.078414,-1.596148,0.078414,-1.565552,0.232228,-1.505537,0.377117,-1.418408,0.507515,-1.307515,0.618408,-1.177117,0.705537,-1.032228,0.765552,-0.878414,0.796148,-0.800000,0.796148,-0.800000,0.800000,1.400000,0.800000,1.403843,0.796157,1.403843,0.796157,$1*%
G04 Aperture macros list end*
%ADD10O,3.500000X2.200000*%
%ADD11R,2.500000X1.500000*%
%ADD12O,2.500000X1.500000*%
%ADD13RoundRect,0.250000X0.625000X-0.350000X0.625000X0.350000X-0.625000X0.350000X-0.625000X-0.350000X0*%
%ADD14O,1.750000X1.200000*%
%ADD15R,1.700000X1.700000*%
%ADD16C,1.700000*%
%ADD17R,2.700000X0.800000*%
%ADD18RoundRect,0.135000X0.185000X-0.135000X0.185000X0.135000X-0.185000X0.135000X-0.185000X-0.135000X0*%
%ADD19C,2.200000*%
%ADD20C,1.850000*%
%ADD21FreePoly0,0.000000*%
%ADD22RoundRect,0.800000X-0.800000X-0.000010X0.800000X-0.000010X0.800000X0.000010X-0.800000X0.000010X0*%
%ADD23FreePoly1,0.000000*%
%ADD24RoundRect,0.200000X-0.600000X-0.600000X0.600000X-0.600000X0.600000X0.600000X-0.600000X0.600000X0*%
%ADD25C,1.600000*%
%ADD26RoundRect,0.250000X0.550000X-0.550000X0.550000X0.550000X-0.550000X0.550000X-0.550000X-0.550000X0*%
%ADD27RoundRect,0.140000X-0.140000X-0.170000X0.140000X-0.170000X0.140000X0.170000X-0.140000X0.170000X0*%
%ADD28RoundRect,0.150000X0.150000X-0.512500X0.150000X0.512500X-0.150000X0.512500X-0.150000X-0.512500X0*%
%ADD29RoundRect,0.135000X-0.185000X0.135000X-0.185000X-0.135000X0.185000X-0.135000X0.185000X0.135000X0*%
%ADD30RoundRect,0.218750X-0.218750X-0.256250X0.218750X-0.256250X0.218750X0.256250X-0.218750X0.256250X0*%
%ADD31RoundRect,0.150000X-0.150000X0.512500X-0.150000X-0.512500X0.150000X-0.512500X0.150000X0.512500X0*%
%ADD32RoundRect,0.250000X1.000000X0.650000X-1.000000X0.650000X-1.000000X-0.650000X1.000000X-0.650000X0*%
%ADD33R,1.000000X1.000000*%
%ADD34C,1.000000*%
G04 APERTURE END LIST*
D10*
%TO.C,SW1*%
X159500000Y-118200000D03*
X159500000Y-110000000D03*
D11*
X159500000Y-116100000D03*
D12*
X159500000Y-114100000D03*
X159500000Y-112100000D03*
%TD*%
D13*
%TO.C,J_BAT1*%
X154550000Y-124500000D03*
D14*
X154550000Y-122500000D03*
%TD*%
D15*
%TO.C,J_SRV2*%
X127500000Y-120440000D03*
D16*
X127500000Y-122980000D03*
X127500000Y-125520000D03*
%TD*%
D15*
%TO.C,J_SRV1*%
X127500000Y-111520000D03*
D16*
X127500000Y-114060000D03*
X127500000Y-116600000D03*
%TD*%
D17*
%TO.C,L1*%
X155500000Y-86500000D03*
X155500000Y-88700000D03*
%TD*%
D18*
%TO.C,R_PROG1*%
X159500000Y-83520000D03*
X159500000Y-82500000D03*
%TD*%
D19*
%TO.C,A1*%
X138165000Y-80210000D03*
D20*
X138465000Y-83240000D03*
X143315000Y-83240000D03*
D19*
X143615000Y-80210000D03*
D21*
X131200000Y-80080000D03*
D22*
X131200000Y-82620000D03*
D23*
X131200000Y-85160000D03*
D22*
X131200000Y-87700000D03*
X131200000Y-90240000D03*
X131200000Y-92780000D03*
X131200000Y-95320000D03*
D23*
X131200000Y-97860000D03*
D22*
X131200000Y-100400000D03*
X131200000Y-102940000D03*
X131200000Y-105480000D03*
X131200000Y-108020000D03*
D23*
X131200000Y-110560000D03*
D22*
X131200000Y-113100000D03*
X131200000Y-115640000D03*
X131200000Y-118180000D03*
X131200000Y-120720000D03*
D23*
X131200000Y-123260000D03*
D22*
X131200000Y-125800000D03*
X131200000Y-128340000D03*
X150580000Y-128340000D03*
X150580000Y-125800000D03*
D21*
X150580000Y-123260000D03*
D22*
X150580000Y-120720000D03*
X150580000Y-118180000D03*
X150580000Y-115640000D03*
X150580000Y-113100000D03*
D21*
X150580000Y-110560000D03*
D22*
X150580000Y-108020000D03*
X150580000Y-105480000D03*
X150580000Y-102940000D03*
X150580000Y-100400000D03*
D21*
X150580000Y-97860000D03*
D22*
X150580000Y-95320000D03*
X150580000Y-92780000D03*
X150580000Y-90240000D03*
X150580000Y-87700000D03*
D21*
X150580000Y-85160000D03*
D22*
X150580000Y-82620000D03*
X150580000Y-80080000D03*
D24*
X141474100Y-109910000D03*
D25*
X144014100Y-109910000D03*
X146554100Y-109910000D03*
%TD*%
D26*
%TO.C,C_3V3*%
X156000000Y-106000000D03*
D25*
X156000000Y-103500000D03*
%TD*%
D15*
%TO.C,J_EXT1*%
X127500000Y-89400000D03*
D16*
X127500000Y-91940000D03*
X127500000Y-94480000D03*
X127500000Y-97020000D03*
X127500000Y-99560000D03*
X127500000Y-102100000D03*
X127500000Y-104640000D03*
X127500000Y-107180000D03*
%TD*%
D18*
%TO.C,R_SRV1*%
X125000000Y-114520000D03*
X125000000Y-113500000D03*
%TD*%
D27*
%TO.C,C_5V_bypass1*%
X159520000Y-100000000D03*
X160480000Y-100000000D03*
%TD*%
D28*
%TO.C,MCP73831*%
X154600000Y-83775000D03*
X155550000Y-83775000D03*
X156500000Y-83775000D03*
X156500000Y-81500000D03*
X154600000Y-81500000D03*
%TD*%
D29*
%TO.C,R_LED1*%
X158000000Y-80980000D03*
X158000000Y-82000000D03*
%TD*%
%TO.C,R_FB2*%
X160500000Y-102000000D03*
X160500000Y-103020000D03*
%TD*%
D30*
%TO.C,LED_CHG1*%
X159712500Y-81000000D03*
X161287500Y-81000000D03*
%TD*%
D29*
%TO.C,R_SRV2*%
X124500000Y-122520000D03*
X124500000Y-123540000D03*
%TD*%
D31*
%TO.C,MT3608*%
X161000000Y-86500000D03*
X160050000Y-86500000D03*
X159100000Y-86500000D03*
X159100000Y-88775000D03*
X160050000Y-88775000D03*
X161000000Y-88775000D03*
%TD*%
D32*
%TO.C,D1*%
X159000000Y-92500000D03*
X155000000Y-92500000D03*
%TD*%
D26*
%TO.C,C_BAT1*%
X126000000Y-83020000D03*
D25*
X126000000Y-80520000D03*
%TD*%
D26*
%TO.C,C_5V1*%
X156000000Y-99000000D03*
D25*
X156000000Y-97000000D03*
%TD*%
D33*
%TO.C,J_DBG1*%
X155000000Y-110500000D03*
D34*
X155000000Y-111770000D03*
X155000000Y-113040000D03*
%TD*%
D29*
%TO.C,R_FB1*%
X160500000Y-97500000D03*
X160500000Y-98520000D03*
%TD*%
D27*
%TO.C,C_3V3_bypass1*%
X158020000Y-101500000D03*
X158980000Y-101500000D03*
%TD*%
M02*
